G75*
%MOIN*%
%OFA0B0*%
%FSLAX25Y25*%
%IPPOS*%
%LPD*%
%AMOC8*
5,1,8,0,0,1.08239X$1,22.5*
%
%ADD10C,0.00000*%
%ADD11C,0.05200*%
%ADD12OC8,0.07400*%
%ADD13C,0.07400*%
%ADD14OC8,0.05200*%
%ADD15C,0.03200*%
%ADD16C,0.01000*%
%ADD17C,0.04356*%
%ADD18C,0.04000*%
%ADD19R,0.03962X0.03962*%
D10*
X0002214Y0062524D02*
X0002214Y0298744D01*
X0217550Y0298744D01*
X0217550Y0062524D01*
X0002214Y0062524D01*
D11*
X0114900Y0185524D02*
X0120100Y0185524D01*
X0120100Y0195524D02*
X0114900Y0195524D01*
X0114900Y0205524D02*
X0120100Y0205524D01*
X0120100Y0215524D02*
X0114900Y0215524D01*
X0114900Y0225524D02*
X0120100Y0225524D01*
X0120100Y0235524D02*
X0114900Y0235524D01*
X0114900Y0245524D02*
X0120100Y0245524D01*
X0120100Y0255524D02*
X0114900Y0255524D01*
X0144900Y0255524D02*
X0150100Y0255524D01*
X0150100Y0245524D02*
X0144900Y0245524D01*
X0144900Y0235524D02*
X0150100Y0235524D01*
X0150100Y0225524D02*
X0144900Y0225524D01*
X0144900Y0215524D02*
X0150100Y0215524D01*
X0150100Y0205524D02*
X0144900Y0205524D01*
X0144900Y0195524D02*
X0150100Y0195524D01*
X0150100Y0185524D02*
X0144900Y0185524D01*
X0146400Y0161524D02*
X0151600Y0161524D01*
X0151600Y0151524D02*
X0146400Y0151524D01*
X0146400Y0141524D02*
X0151600Y0141524D01*
X0151600Y0131524D02*
X0146400Y0131524D01*
X0146400Y0121524D02*
X0151600Y0121524D01*
X0151600Y0111524D02*
X0146400Y0111524D01*
X0146400Y0101524D02*
X0151600Y0101524D01*
X0151600Y0091524D02*
X0146400Y0091524D01*
X0121600Y0091524D02*
X0116400Y0091524D01*
X0116400Y0101524D02*
X0121600Y0101524D01*
X0121600Y0111524D02*
X0116400Y0111524D01*
X0116400Y0121524D02*
X0121600Y0121524D01*
X0121600Y0131524D02*
X0116400Y0131524D01*
X0116400Y0141524D02*
X0121600Y0141524D01*
X0121600Y0151524D02*
X0116400Y0151524D01*
X0116400Y0161524D02*
X0121600Y0161524D01*
D12*
X0061500Y0162524D03*
X0061500Y0152524D03*
X0061500Y0142524D03*
X0061500Y0132524D03*
X0051500Y0132524D03*
X0051500Y0142524D03*
X0051500Y0152524D03*
X0051500Y0162524D03*
D13*
X0015000Y0162524D03*
X0015000Y0172524D03*
X0015000Y0182524D03*
X0015000Y0192524D03*
X0015000Y0207524D03*
X0015000Y0217524D03*
X0015000Y0227524D03*
X0015000Y0237524D03*
X0015000Y0247524D03*
X0015000Y0257524D03*
X0015000Y0267524D03*
X0015000Y0277524D03*
X0101500Y0225024D03*
X0101500Y0215024D03*
X0163000Y0215024D03*
X0163000Y0225024D03*
X0205000Y0227524D03*
X0205000Y0237524D03*
X0205000Y0247524D03*
X0205000Y0257524D03*
X0205000Y0267524D03*
X0205000Y0277524D03*
X0205000Y0207524D03*
X0205000Y0197524D03*
X0205000Y0187524D03*
X0205000Y0177524D03*
X0205000Y0167524D03*
X0205000Y0157524D03*
X0205000Y0147524D03*
X0205000Y0137524D03*
X0167500Y0133024D03*
X0167500Y0123024D03*
X0102500Y0121024D03*
X0102500Y0131024D03*
X0015000Y0132524D03*
X0015000Y0142524D03*
X0015000Y0152524D03*
X0015000Y0122524D03*
X0015000Y0112524D03*
X0015000Y0102524D03*
D14*
X0086500Y0085024D03*
X0106500Y0085024D03*
X0163500Y0157024D03*
X0183500Y0157024D03*
X0178500Y0254524D03*
X0158500Y0254524D03*
X0102000Y0202424D03*
X0102000Y0182424D03*
D15*
X0147500Y0185524D02*
X0155500Y0177524D01*
X0205000Y0177524D01*
D16*
X0173500Y0191524D02*
X0173500Y0227024D01*
X0155000Y0245524D01*
X0147500Y0245524D01*
X0137000Y0262524D02*
X0130000Y0269524D01*
X0049500Y0269524D01*
X0035500Y0255524D01*
X0035500Y0236024D01*
X0027000Y0227524D01*
X0015000Y0227524D01*
X0015500Y0218024D02*
X0036000Y0218024D01*
X0042000Y0224024D01*
X0042000Y0256024D01*
X0050500Y0264524D01*
X0073000Y0264524D01*
X0052000Y0257524D02*
X0087000Y0222524D01*
X0109500Y0237524D02*
X0117500Y0245524D01*
X0109500Y0237524D02*
X0109500Y0187524D01*
X0109500Y0176524D01*
X0109500Y0187524D02*
X0052000Y0187524D01*
X0038500Y0181024D02*
X0093500Y0181024D01*
X0080000Y0156524D02*
X0076000Y0152524D01*
X0061500Y0152524D01*
X0051500Y0152524D02*
X0039000Y0152524D01*
X0032000Y0159524D01*
X0032000Y0201524D01*
X0026000Y0207524D01*
X0015000Y0207524D01*
X0015000Y0142524D02*
X0051500Y0142524D01*
X0051500Y0132524D02*
X0035500Y0132524D01*
X0032000Y0136024D01*
X0061500Y0132524D02*
X0082000Y0132524D01*
X0087000Y0137524D01*
X0119000Y0091524D02*
X0112500Y0085024D01*
X0106500Y0085024D01*
X0138000Y0104524D02*
X0138000Y0163524D01*
X0139000Y0178524D02*
X0139000Y0191524D01*
X0142250Y0194774D01*
X0137000Y0200024D01*
X0137000Y0262524D01*
X0143000Y0195524D02*
X0147500Y0195524D01*
X0143000Y0195524D02*
X0142250Y0194774D01*
X0138000Y0104524D02*
X0141000Y0101524D01*
X0149000Y0101524D01*
D17*
X0087000Y0137524D03*
X0080000Y0156524D03*
X0052000Y0187524D03*
X0038500Y0181024D03*
X0032000Y0136024D03*
X0087000Y0222524D03*
X0073000Y0264524D03*
X0052000Y0257524D03*
X0173500Y0191524D03*
D18*
X0187000Y0170524D02*
X0069500Y0170524D01*
X0061500Y0162524D01*
X0187000Y0170524D02*
X0190000Y0167524D01*
X0205000Y0167524D01*
D19*
X0139000Y0178524D03*
X0138000Y0163524D03*
X0109500Y0176524D03*
X0093500Y0181024D03*
X0015500Y0218024D03*
M02*
