G75*
%MOIN*%
%OFA0B0*%
%FSLAX25Y25*%
%IPPOS*%
%LPD*%
%AMOC8*
5,1,8,0,0,1.08239X$1,22.5*
%
%ADD10C,0.05200*%
%ADD11OC8,0.07400*%
%ADD12C,0.07400*%
%ADD13OC8,0.05200*%
%ADD14C,0.05000*%
%ADD15C,0.02400*%
%ADD16C,0.01000*%
%ADD17C,0.04356*%
%ADD18R,0.03962X0.03962*%
%ADD19C,0.03200*%
D10*
X0116400Y0091524D02*
X0121600Y0091524D01*
X0121600Y0101524D02*
X0116400Y0101524D01*
X0116400Y0111524D02*
X0121600Y0111524D01*
X0121600Y0121524D02*
X0116400Y0121524D01*
X0116400Y0131524D02*
X0121600Y0131524D01*
X0121600Y0141524D02*
X0116400Y0141524D01*
X0116400Y0151524D02*
X0121600Y0151524D01*
X0121600Y0161524D02*
X0116400Y0161524D01*
X0114900Y0185524D02*
X0120100Y0185524D01*
X0120100Y0195524D02*
X0114900Y0195524D01*
X0114900Y0205524D02*
X0120100Y0205524D01*
X0120100Y0215524D02*
X0114900Y0215524D01*
X0114900Y0225524D02*
X0120100Y0225524D01*
X0120100Y0235524D02*
X0114900Y0235524D01*
X0114900Y0245524D02*
X0120100Y0245524D01*
X0120100Y0255524D02*
X0114900Y0255524D01*
X0144900Y0255524D02*
X0150100Y0255524D01*
X0150100Y0245524D02*
X0144900Y0245524D01*
X0144900Y0235524D02*
X0150100Y0235524D01*
X0150100Y0225524D02*
X0144900Y0225524D01*
X0144900Y0215524D02*
X0150100Y0215524D01*
X0150100Y0205524D02*
X0144900Y0205524D01*
X0144900Y0195524D02*
X0150100Y0195524D01*
X0150100Y0185524D02*
X0144900Y0185524D01*
X0146400Y0161524D02*
X0151600Y0161524D01*
X0151600Y0151524D02*
X0146400Y0151524D01*
X0146400Y0141524D02*
X0151600Y0141524D01*
X0151600Y0131524D02*
X0146400Y0131524D01*
X0146400Y0121524D02*
X0151600Y0121524D01*
X0151600Y0111524D02*
X0146400Y0111524D01*
X0146400Y0101524D02*
X0151600Y0101524D01*
X0151600Y0091524D02*
X0146400Y0091524D01*
D11*
X0061500Y0132524D03*
X0061500Y0142524D03*
X0061500Y0152524D03*
X0061500Y0162524D03*
X0051500Y0162524D03*
X0051500Y0152524D03*
X0051500Y0142524D03*
X0051500Y0132524D03*
D12*
X0015000Y0132524D03*
X0015000Y0142524D03*
X0015000Y0152524D03*
X0015000Y0162524D03*
X0015000Y0172524D03*
X0015000Y0182524D03*
X0015000Y0192524D03*
X0015000Y0207524D03*
X0015000Y0217524D03*
X0015000Y0227524D03*
X0015000Y0237524D03*
X0015000Y0247524D03*
X0015000Y0257524D03*
X0015000Y0267524D03*
X0015000Y0277524D03*
X0101500Y0225024D03*
X0101500Y0215024D03*
X0163000Y0215024D03*
X0163000Y0225024D03*
X0205000Y0227524D03*
X0205000Y0237524D03*
X0205000Y0247524D03*
X0205000Y0257524D03*
X0205000Y0267524D03*
X0205000Y0277524D03*
X0205000Y0207524D03*
X0205000Y0197524D03*
X0205000Y0187524D03*
X0205000Y0177524D03*
X0205000Y0167524D03*
X0205000Y0157524D03*
X0205000Y0147524D03*
X0205000Y0137524D03*
X0167500Y0133024D03*
X0167500Y0123024D03*
X0102500Y0121024D03*
X0102500Y0131024D03*
X0015000Y0122524D03*
X0015000Y0112524D03*
X0015000Y0102524D03*
D13*
X0086500Y0085024D03*
X0106500Y0085024D03*
X0163500Y0157024D03*
X0183500Y0157024D03*
X0178500Y0254524D03*
X0158500Y0254524D03*
X0102000Y0202424D03*
X0102000Y0182424D03*
D14*
X0111000Y0205524D02*
X0101500Y0215024D01*
X0101500Y0225024D02*
X0112000Y0235524D01*
X0117500Y0235524D01*
X0117500Y0205524D02*
X0111000Y0205524D01*
X0147500Y0205524D02*
X0153500Y0205524D01*
X0163000Y0215024D01*
X0163000Y0225024D02*
X0152500Y0235524D01*
X0147500Y0235524D01*
X0158500Y0251024D02*
X0185000Y0224524D01*
X0185000Y0207524D01*
X0205000Y0207524D01*
X0185000Y0207524D02*
X0175000Y0207524D01*
X0165000Y0197524D01*
X0165000Y0167524D01*
X0159000Y0161524D01*
X0163500Y0157024D01*
X0159000Y0161524D02*
X0149000Y0161524D01*
X0149000Y0141524D02*
X0159000Y0141524D01*
X0167500Y0133024D01*
X0167500Y0123024D02*
X0156000Y0111524D01*
X0149000Y0111524D01*
X0119000Y0111524D02*
X0112000Y0111524D01*
X0102500Y0121024D01*
X0102500Y0131024D02*
X0113000Y0141524D01*
X0119000Y0141524D01*
X0158500Y0251024D02*
X0158500Y0254524D01*
X0157500Y0255524D01*
X0147500Y0255524D01*
X0148000Y0256024D01*
D15*
X0132500Y0248024D02*
X0132500Y0186024D01*
X0133000Y0185524D01*
X0133000Y0171524D01*
X0123000Y0161524D01*
X0119000Y0161524D01*
X0127000Y0161524D01*
X0134000Y0154524D01*
X0134000Y0091524D01*
X0149000Y0091524D01*
X0134000Y0091524D02*
X0119000Y0091524D01*
X0117500Y0185524D02*
X0133000Y0185524D01*
X0147500Y0185524D01*
X0132500Y0248024D02*
X0125000Y0255524D01*
X0117500Y0255524D01*
D16*
X0006714Y0294244D02*
X0006714Y0067024D01*
X0213050Y0067024D01*
X0213050Y0294244D01*
X0006714Y0294244D01*
X0006714Y0294178D02*
X0213050Y0294178D01*
X0213050Y0293180D02*
X0006714Y0293180D01*
X0006714Y0292181D02*
X0213050Y0292181D01*
X0213050Y0291183D02*
X0006714Y0291183D01*
X0006714Y0290184D02*
X0213050Y0290184D01*
X0213050Y0289186D02*
X0006714Y0289186D01*
X0006714Y0288187D02*
X0213050Y0288187D01*
X0213050Y0287189D02*
X0006714Y0287189D01*
X0006714Y0286190D02*
X0213050Y0286190D01*
X0213050Y0285192D02*
X0006714Y0285192D01*
X0006714Y0284193D02*
X0213050Y0284193D01*
X0213050Y0283195D02*
X0006714Y0283195D01*
X0006714Y0282196D02*
X0012170Y0282196D01*
X0011941Y0282102D02*
X0010422Y0280582D01*
X0009600Y0278598D01*
X0009600Y0276449D01*
X0010422Y0274465D01*
X0011941Y0272946D01*
X0012960Y0272524D01*
X0011941Y0272102D01*
X0010422Y0270582D01*
X0009600Y0268598D01*
X0009600Y0266449D01*
X0010422Y0264465D01*
X0011941Y0262946D01*
X0012960Y0262524D01*
X0011941Y0262102D01*
X0010422Y0260582D01*
X0009600Y0258598D01*
X0009600Y0256449D01*
X0010422Y0254465D01*
X0011941Y0252946D01*
X0012960Y0252524D01*
X0011941Y0252102D01*
X0010422Y0250582D01*
X0009600Y0248598D01*
X0009600Y0246449D01*
X0010422Y0244465D01*
X0011941Y0242946D01*
X0012960Y0242524D01*
X0011941Y0242102D01*
X0010422Y0240582D01*
X0009600Y0238598D01*
X0009600Y0236449D01*
X0010422Y0234465D01*
X0011941Y0232946D01*
X0012960Y0232524D01*
X0011941Y0232102D01*
X0010422Y0230582D01*
X0009600Y0228598D01*
X0009600Y0226449D01*
X0010422Y0224465D01*
X0011941Y0222946D01*
X0012960Y0222524D01*
X0011941Y0222102D01*
X0010422Y0220582D01*
X0009600Y0218598D01*
X0009600Y0216449D01*
X0010422Y0214465D01*
X0011941Y0212946D01*
X0012960Y0212524D01*
X0011941Y0212102D01*
X0010422Y0210582D01*
X0009600Y0208598D01*
X0009600Y0206449D01*
X0010422Y0204465D01*
X0011941Y0202946D01*
X0013926Y0202124D01*
X0016074Y0202124D01*
X0018059Y0202946D01*
X0019578Y0204465D01*
X0020400Y0206449D01*
X0020400Y0208598D01*
X0019578Y0210582D01*
X0018059Y0212102D01*
X0017040Y0212524D01*
X0018059Y0212946D01*
X0019578Y0214465D01*
X0020400Y0216449D01*
X0020400Y0218598D01*
X0019578Y0220582D01*
X0018059Y0222102D01*
X0017040Y0222524D01*
X0018059Y0222946D01*
X0019578Y0224465D01*
X0020400Y0226449D01*
X0020400Y0228598D01*
X0019578Y0230582D01*
X0018059Y0232102D01*
X0017040Y0232524D01*
X0018059Y0232946D01*
X0019578Y0234465D01*
X0020400Y0236449D01*
X0020400Y0238598D01*
X0019578Y0240582D01*
X0018059Y0242102D01*
X0017040Y0242524D01*
X0018059Y0242946D01*
X0019578Y0244465D01*
X0020400Y0246449D01*
X0020400Y0248598D01*
X0019578Y0250582D01*
X0018059Y0252102D01*
X0017040Y0252524D01*
X0018059Y0252946D01*
X0019578Y0254465D01*
X0019934Y0255324D01*
X0048716Y0255324D01*
X0049803Y0254236D01*
X0051229Y0253646D01*
X0052771Y0253646D01*
X0054197Y0254236D01*
X0055288Y0255327D01*
X0055878Y0256752D01*
X0055878Y0258295D01*
X0055288Y0259720D01*
X0054197Y0260811D01*
X0052771Y0261402D01*
X0051229Y0261402D01*
X0049803Y0260811D01*
X0048716Y0259724D01*
X0019934Y0259724D01*
X0019578Y0260582D01*
X0018059Y0262102D01*
X0017040Y0262524D01*
X0018059Y0262946D01*
X0019578Y0264465D01*
X0020400Y0266449D01*
X0020400Y0268598D01*
X0019578Y0270582D01*
X0018059Y0272102D01*
X0017040Y0272524D01*
X0018059Y0272946D01*
X0019578Y0274465D01*
X0020400Y0276449D01*
X0020400Y0278598D01*
X0019578Y0280582D01*
X0018059Y0282102D01*
X0016074Y0282924D01*
X0013926Y0282924D01*
X0011941Y0282102D01*
X0011037Y0281198D02*
X0006714Y0281198D01*
X0006714Y0280199D02*
X0010263Y0280199D01*
X0009850Y0279201D02*
X0006714Y0279201D01*
X0006714Y0278202D02*
X0009600Y0278202D01*
X0009600Y0277204D02*
X0006714Y0277204D01*
X0006714Y0276205D02*
X0009701Y0276205D01*
X0010115Y0275207D02*
X0006714Y0275207D01*
X0006714Y0274208D02*
X0010679Y0274208D01*
X0011677Y0273210D02*
X0006714Y0273210D01*
X0006714Y0272211D02*
X0012205Y0272211D01*
X0011052Y0271212D02*
X0006714Y0271212D01*
X0006714Y0270214D02*
X0010269Y0270214D01*
X0009856Y0269215D02*
X0006714Y0269215D01*
X0006714Y0268217D02*
X0009600Y0268217D01*
X0009600Y0267218D02*
X0006714Y0267218D01*
X0006714Y0266220D02*
X0009695Y0266220D01*
X0010109Y0265221D02*
X0006714Y0265221D01*
X0006714Y0264223D02*
X0010664Y0264223D01*
X0011662Y0263224D02*
X0006714Y0263224D01*
X0006714Y0262226D02*
X0012241Y0262226D01*
X0011067Y0261227D02*
X0006714Y0261227D01*
X0006714Y0260229D02*
X0010276Y0260229D01*
X0009862Y0259230D02*
X0006714Y0259230D01*
X0006714Y0258232D02*
X0009600Y0258232D01*
X0009600Y0257233D02*
X0006714Y0257233D01*
X0006714Y0256235D02*
X0009689Y0256235D01*
X0010103Y0255236D02*
X0006714Y0255236D01*
X0006714Y0254238D02*
X0010649Y0254238D01*
X0011648Y0253239D02*
X0006714Y0253239D01*
X0006714Y0252241D02*
X0012277Y0252241D01*
X0011082Y0251242D02*
X0006714Y0251242D01*
X0006714Y0250244D02*
X0010282Y0250244D01*
X0009868Y0249245D02*
X0006714Y0249245D01*
X0006714Y0248247D02*
X0009600Y0248247D01*
X0009600Y0247248D02*
X0006714Y0247248D01*
X0006714Y0246250D02*
X0009683Y0246250D01*
X0010096Y0245251D02*
X0006714Y0245251D01*
X0006714Y0244253D02*
X0010634Y0244253D01*
X0011633Y0243254D02*
X0006714Y0243254D01*
X0006714Y0242256D02*
X0012313Y0242256D01*
X0011097Y0241257D02*
X0006714Y0241257D01*
X0006714Y0240259D02*
X0010288Y0240259D01*
X0009874Y0239260D02*
X0006714Y0239260D01*
X0006714Y0238262D02*
X0009600Y0238262D01*
X0009600Y0237263D02*
X0006714Y0237263D01*
X0006714Y0236265D02*
X0009677Y0236265D01*
X0010090Y0235266D02*
X0006714Y0235266D01*
X0006714Y0234268D02*
X0010619Y0234268D01*
X0011618Y0233269D02*
X0006714Y0233269D01*
X0006714Y0232271D02*
X0012349Y0232271D01*
X0011112Y0231272D02*
X0006714Y0231272D01*
X0006714Y0230274D02*
X0010294Y0230274D01*
X0009881Y0229275D02*
X0006714Y0229275D01*
X0006714Y0228277D02*
X0009600Y0228277D01*
X0009600Y0227278D02*
X0006714Y0227278D01*
X0006714Y0226279D02*
X0009670Y0226279D01*
X0010084Y0225281D02*
X0006714Y0225281D01*
X0006714Y0224282D02*
X0010604Y0224282D01*
X0011603Y0223284D02*
X0006714Y0223284D01*
X0006714Y0222285D02*
X0012385Y0222285D01*
X0011127Y0221287D02*
X0006714Y0221287D01*
X0006714Y0220288D02*
X0010300Y0220288D01*
X0009887Y0219290D02*
X0006714Y0219290D01*
X0006714Y0218291D02*
X0009600Y0218291D01*
X0009600Y0217293D02*
X0006714Y0217293D01*
X0006714Y0216294D02*
X0009664Y0216294D01*
X0010078Y0215296D02*
X0006714Y0215296D01*
X0006714Y0214297D02*
X0010590Y0214297D01*
X0011588Y0213299D02*
X0006714Y0213299D01*
X0006714Y0212300D02*
X0012421Y0212300D01*
X0011141Y0211302D02*
X0006714Y0211302D01*
X0006714Y0210303D02*
X0010306Y0210303D01*
X0009893Y0209305D02*
X0006714Y0209305D01*
X0006714Y0208306D02*
X0009600Y0208306D01*
X0009600Y0207308D02*
X0006714Y0207308D01*
X0006714Y0206309D02*
X0009658Y0206309D01*
X0010072Y0205311D02*
X0006714Y0205311D01*
X0006714Y0204312D02*
X0010575Y0204312D01*
X0011573Y0203314D02*
X0006714Y0203314D01*
X0006714Y0202315D02*
X0013463Y0202315D01*
X0016537Y0202315D02*
X0084800Y0202315D01*
X0084800Y0201317D02*
X0006714Y0201317D01*
X0006714Y0200318D02*
X0084800Y0200318D01*
X0084800Y0199320D02*
X0006714Y0199320D01*
X0006714Y0198321D02*
X0084800Y0198321D01*
X0084800Y0197323D02*
X0017525Y0197323D01*
X0018059Y0197102D02*
X0016074Y0197924D01*
X0013926Y0197924D01*
X0011941Y0197102D01*
X0010422Y0195582D01*
X0009600Y0193598D01*
X0009600Y0191449D01*
X0010422Y0189465D01*
X0011941Y0187946D01*
X0012960Y0187524D01*
X0011941Y0187102D01*
X0010422Y0185582D01*
X0009600Y0183598D01*
X0009600Y0181449D01*
X0010422Y0179465D01*
X0011941Y0177946D01*
X0012960Y0177524D01*
X0011941Y0177102D01*
X0010422Y0175582D01*
X0009600Y0173598D01*
X0009600Y0171449D01*
X0010422Y0169465D01*
X0011941Y0167946D01*
X0012960Y0167524D01*
X0011941Y0167102D01*
X0010422Y0165582D01*
X0009600Y0163598D01*
X0009600Y0161449D01*
X0010422Y0159465D01*
X0011941Y0157946D01*
X0012960Y0157524D01*
X0011941Y0157102D01*
X0010422Y0155582D01*
X0009600Y0153598D01*
X0009600Y0151449D01*
X0010422Y0149465D01*
X0011941Y0147946D01*
X0012960Y0147524D01*
X0011941Y0147102D01*
X0010422Y0145582D01*
X0009600Y0143598D01*
X0009600Y0141449D01*
X0010422Y0139465D01*
X0011941Y0137946D01*
X0013224Y0137414D01*
X0013004Y0137343D01*
X0012275Y0136971D01*
X0011612Y0136490D01*
X0011034Y0135911D01*
X0010553Y0135249D01*
X0010181Y0134520D01*
X0009928Y0133741D01*
X0009814Y0133024D01*
X0014500Y0133024D01*
X0014500Y0132024D01*
X0009814Y0132024D01*
X0009928Y0131306D01*
X0010181Y0130528D01*
X0010553Y0129798D01*
X0011034Y0129136D01*
X0011612Y0128557D01*
X0012275Y0128076D01*
X0013004Y0127705D01*
X0013224Y0127633D01*
X0011941Y0127102D01*
X0010422Y0125582D01*
X0009600Y0123598D01*
X0009600Y0121449D01*
X0010422Y0119465D01*
X0011941Y0117946D01*
X0012960Y0117524D01*
X0011941Y0117102D01*
X0010422Y0115582D01*
X0009600Y0113598D01*
X0009600Y0111449D01*
X0010422Y0109465D01*
X0011941Y0107946D01*
X0012960Y0107524D01*
X0011941Y0107102D01*
X0010422Y0105582D01*
X0009600Y0103598D01*
X0009600Y0101449D01*
X0010422Y0099465D01*
X0011941Y0097946D01*
X0013926Y0097124D01*
X0016074Y0097124D01*
X0018059Y0097946D01*
X0019578Y0099465D01*
X0020400Y0101449D01*
X0020400Y0103598D01*
X0019578Y0105582D01*
X0018059Y0107102D01*
X0017040Y0107524D01*
X0018059Y0107946D01*
X0019578Y0109465D01*
X0020400Y0111449D01*
X0020400Y0113598D01*
X0019578Y0115582D01*
X0018059Y0117102D01*
X0017040Y0117524D01*
X0018059Y0117946D01*
X0019578Y0119465D01*
X0020400Y0121449D01*
X0020400Y0123598D01*
X0019578Y0125582D01*
X0018059Y0127102D01*
X0016776Y0127633D01*
X0016996Y0127705D01*
X0017725Y0128076D01*
X0018388Y0128557D01*
X0018966Y0129136D01*
X0019447Y0129798D01*
X0019819Y0130528D01*
X0020072Y0131306D01*
X0020186Y0132024D01*
X0015500Y0132024D01*
X0015500Y0133024D01*
X0020186Y0133024D01*
X0020072Y0133741D01*
X0019819Y0134520D01*
X0019447Y0135249D01*
X0018966Y0135911D01*
X0018388Y0136490D01*
X0017725Y0136971D01*
X0016996Y0137343D01*
X0016776Y0137414D01*
X0018059Y0137946D01*
X0019578Y0139465D01*
X0020400Y0141449D01*
X0020400Y0143598D01*
X0019578Y0145582D01*
X0018059Y0147102D01*
X0017040Y0147524D01*
X0018059Y0147946D01*
X0019578Y0149465D01*
X0019727Y0149824D01*
X0023089Y0149824D01*
X0029800Y0143112D01*
X0029800Y0139308D01*
X0028712Y0138220D01*
X0028122Y0136795D01*
X0028122Y0135252D01*
X0028712Y0133827D01*
X0029803Y0132736D01*
X0031229Y0132146D01*
X0032771Y0132146D01*
X0034197Y0132736D01*
X0035288Y0133827D01*
X0035878Y0135252D01*
X0035878Y0136795D01*
X0035288Y0138220D01*
X0034200Y0139308D01*
X0034200Y0144935D01*
X0026200Y0152935D01*
X0024911Y0154224D01*
X0020141Y0154224D01*
X0019578Y0155582D01*
X0018059Y0157102D01*
X0017040Y0157524D01*
X0018059Y0157946D01*
X0019578Y0159465D01*
X0019934Y0160324D01*
X0026911Y0160324D01*
X0028200Y0161612D01*
X0036911Y0170324D01*
X0067089Y0170324D01*
X0069800Y0167612D01*
X0069800Y0147435D01*
X0067089Y0144724D01*
X0066900Y0144724D01*
X0066900Y0144760D01*
X0064137Y0147524D01*
X0066900Y0150287D01*
X0066900Y0154760D01*
X0064137Y0157524D01*
X0066900Y0160287D01*
X0066900Y0164760D01*
X0063737Y0167924D01*
X0059263Y0167924D01*
X0056359Y0165019D01*
X0053654Y0167724D01*
X0052000Y0167724D01*
X0052000Y0163024D01*
X0051000Y0163024D01*
X0051000Y0167724D01*
X0049346Y0167724D01*
X0046300Y0164678D01*
X0046300Y0163024D01*
X0051000Y0163024D01*
X0051000Y0162024D01*
X0046300Y0162024D01*
X0046300Y0160370D01*
X0049005Y0157665D01*
X0046100Y0154760D01*
X0046100Y0150287D01*
X0048863Y0147524D01*
X0046100Y0144760D01*
X0046100Y0140287D01*
X0048863Y0137524D01*
X0046100Y0134760D01*
X0046100Y0130287D01*
X0049263Y0127124D01*
X0053737Y0127124D01*
X0056500Y0129887D01*
X0059263Y0127124D01*
X0063737Y0127124D01*
X0066900Y0130287D01*
X0066900Y0134760D01*
X0064137Y0137524D01*
X0066900Y0140287D01*
X0066900Y0140324D01*
X0068911Y0140324D01*
X0072911Y0144324D01*
X0074200Y0145612D01*
X0074200Y0169435D01*
X0070200Y0173435D01*
X0068911Y0174724D01*
X0035089Y0174724D01*
X0025089Y0164724D01*
X0019934Y0164724D01*
X0019578Y0165582D01*
X0018059Y0167102D01*
X0017040Y0167524D01*
X0018059Y0167946D01*
X0019578Y0169465D01*
X0019934Y0170324D01*
X0025911Y0170324D01*
X0033911Y0178324D01*
X0035716Y0178324D01*
X0036303Y0177736D01*
X0037729Y0177146D01*
X0039271Y0177146D01*
X0040697Y0177736D01*
X0041788Y0178827D01*
X0042378Y0180252D01*
X0042378Y0181795D01*
X0041788Y0183220D01*
X0040697Y0184311D01*
X0039271Y0184902D01*
X0037729Y0184902D01*
X0036303Y0184311D01*
X0035212Y0183220D01*
X0035007Y0182724D01*
X0032089Y0182724D01*
X0030800Y0181435D01*
X0024089Y0174724D01*
X0019934Y0174724D01*
X0019578Y0175582D01*
X0018059Y0177102D01*
X0017040Y0177524D01*
X0018059Y0177946D01*
X0019578Y0179465D01*
X0019934Y0180324D01*
X0026411Y0180324D01*
X0031411Y0185324D01*
X0048716Y0185324D01*
X0049803Y0184236D01*
X0051229Y0183646D01*
X0052771Y0183646D01*
X0054197Y0184236D01*
X0055288Y0185327D01*
X0055878Y0186752D01*
X0055878Y0188295D01*
X0055288Y0189720D01*
X0054197Y0190811D01*
X0052771Y0191402D01*
X0051229Y0191402D01*
X0049803Y0190811D01*
X0048716Y0189724D01*
X0029589Y0189724D01*
X0028300Y0188435D01*
X0024589Y0184724D01*
X0019934Y0184724D01*
X0019578Y0185582D01*
X0018059Y0187102D01*
X0017040Y0187524D01*
X0018059Y0187946D01*
X0019578Y0189465D01*
X0020400Y0191449D01*
X0020400Y0192324D01*
X0063589Y0192324D01*
X0077800Y0178112D01*
X0077800Y0159808D01*
X0076712Y0158720D01*
X0076122Y0157295D01*
X0076122Y0155752D01*
X0076712Y0154327D01*
X0077803Y0153236D01*
X0079229Y0152646D01*
X0080771Y0152646D01*
X0082197Y0153236D01*
X0083288Y0154327D01*
X0083878Y0155752D01*
X0083878Y0157295D01*
X0083288Y0158720D01*
X0082200Y0159808D01*
X0082200Y0179935D01*
X0066700Y0195435D01*
X0065411Y0196724D01*
X0018437Y0196724D01*
X0018059Y0197102D01*
X0017000Y0194524D02*
X0015000Y0192524D01*
X0017000Y0194524D02*
X0064500Y0194524D01*
X0080000Y0179024D01*
X0080000Y0156524D01*
X0077371Y0159379D02*
X0074200Y0159379D01*
X0074200Y0158381D02*
X0076572Y0158381D01*
X0076158Y0157382D02*
X0074200Y0157382D01*
X0074200Y0156384D02*
X0076122Y0156384D01*
X0076274Y0155385D02*
X0074200Y0155385D01*
X0074200Y0154387D02*
X0076688Y0154387D01*
X0077651Y0153388D02*
X0074200Y0153388D01*
X0074200Y0152390D02*
X0084800Y0152390D01*
X0084800Y0153388D02*
X0082349Y0153388D01*
X0083312Y0154387D02*
X0084800Y0154387D01*
X0084800Y0155385D02*
X0083726Y0155385D01*
X0083878Y0156384D02*
X0084800Y0156384D01*
X0084800Y0157382D02*
X0083842Y0157382D01*
X0083428Y0158381D02*
X0084800Y0158381D01*
X0084800Y0159379D02*
X0082629Y0159379D01*
X0082200Y0160378D02*
X0084800Y0160378D01*
X0084800Y0161376D02*
X0082200Y0161376D01*
X0082200Y0162375D02*
X0084800Y0162375D01*
X0084800Y0163373D02*
X0082200Y0163373D01*
X0082200Y0164372D02*
X0084800Y0164372D01*
X0084800Y0165370D02*
X0082200Y0165370D01*
X0082200Y0166369D02*
X0084800Y0166369D01*
X0084800Y0167367D02*
X0082200Y0167367D01*
X0082200Y0168366D02*
X0084800Y0168366D01*
X0084800Y0169364D02*
X0082200Y0169364D01*
X0082200Y0170363D02*
X0084800Y0170363D01*
X0084800Y0171361D02*
X0082200Y0171361D01*
X0082200Y0172360D02*
X0084800Y0172360D01*
X0084800Y0173358D02*
X0082200Y0173358D01*
X0082200Y0174357D02*
X0084800Y0174357D01*
X0084800Y0175355D02*
X0082200Y0175355D01*
X0082200Y0176354D02*
X0084800Y0176354D01*
X0084800Y0177352D02*
X0082200Y0177352D01*
X0082200Y0178351D02*
X0084800Y0178351D01*
X0084800Y0179349D02*
X0082200Y0179349D01*
X0081787Y0180348D02*
X0084800Y0180348D01*
X0084800Y0181346D02*
X0080788Y0181346D01*
X0079790Y0182345D02*
X0084800Y0182345D01*
X0084800Y0183343D02*
X0078791Y0183343D01*
X0077793Y0184342D02*
X0084800Y0184342D01*
X0084800Y0185341D02*
X0076794Y0185341D01*
X0075796Y0186339D02*
X0084800Y0186339D01*
X0084800Y0187338D02*
X0074797Y0187338D01*
X0073799Y0188336D02*
X0084800Y0188336D01*
X0084800Y0189335D02*
X0072800Y0189335D01*
X0071802Y0190333D02*
X0084800Y0190333D01*
X0084800Y0191332D02*
X0070803Y0191332D01*
X0069805Y0192330D02*
X0084800Y0192330D01*
X0084800Y0193329D02*
X0068806Y0193329D01*
X0067808Y0194327D02*
X0084800Y0194327D01*
X0084800Y0195326D02*
X0066809Y0195326D01*
X0065811Y0196324D02*
X0084800Y0196324D01*
X0089200Y0196324D02*
X0099189Y0196324D01*
X0098800Y0195935D02*
X0091300Y0188435D01*
X0091300Y0184705D01*
X0090815Y0184705D01*
X0089819Y0183709D01*
X0089819Y0178338D01*
X0090815Y0177343D01*
X0091300Y0177343D01*
X0091300Y0105112D01*
X0092589Y0103824D01*
X0097089Y0099324D01*
X0112657Y0099324D01*
X0112755Y0099088D01*
X0113964Y0097878D01*
X0115545Y0097224D01*
X0122455Y0097224D01*
X0124036Y0097878D01*
X0125245Y0099088D01*
X0125900Y0100668D01*
X0125900Y0102379D01*
X0125245Y0103959D01*
X0124036Y0105169D01*
X0122455Y0105824D01*
X0115545Y0105824D01*
X0113964Y0105169D01*
X0112755Y0103959D01*
X0112657Y0103724D01*
X0098911Y0103724D01*
X0095700Y0106935D01*
X0095700Y0177343D01*
X0096185Y0177343D01*
X0097181Y0178338D01*
X0097181Y0183709D01*
X0096185Y0184705D01*
X0095700Y0184705D01*
X0095700Y0186612D01*
X0101911Y0192824D01*
X0111519Y0192824D01*
X0112464Y0191878D01*
X0114045Y0191224D01*
X0120955Y0191224D01*
X0122536Y0191878D01*
X0123745Y0193088D01*
X0124400Y0194668D01*
X0124400Y0196379D01*
X0123745Y0197959D01*
X0122536Y0199169D01*
X0120955Y0199824D01*
X0114045Y0199824D01*
X0112464Y0199169D01*
X0111255Y0197959D01*
X0110950Y0197224D01*
X0100089Y0197224D01*
X0098800Y0195935D01*
X0098191Y0195326D02*
X0089200Y0195326D01*
X0089200Y0194327D02*
X0097192Y0194327D01*
X0096194Y0193329D02*
X0089200Y0193329D01*
X0089200Y0192330D02*
X0095195Y0192330D01*
X0094197Y0191332D02*
X0089200Y0191332D01*
X0089200Y0190333D02*
X0093198Y0190333D01*
X0092200Y0189335D02*
X0089200Y0189335D01*
X0089200Y0188336D02*
X0091300Y0188336D01*
X0091300Y0187338D02*
X0089200Y0187338D01*
X0089200Y0186339D02*
X0091300Y0186339D01*
X0091300Y0185341D02*
X0089200Y0185341D01*
X0089200Y0184342D02*
X0090452Y0184342D01*
X0089819Y0183343D02*
X0089200Y0183343D01*
X0089200Y0182345D02*
X0089819Y0182345D01*
X0089819Y0181346D02*
X0089200Y0181346D01*
X0089200Y0180348D02*
X0089819Y0180348D01*
X0089819Y0179349D02*
X0089200Y0179349D01*
X0089200Y0178351D02*
X0089819Y0178351D01*
X0089200Y0177352D02*
X0090805Y0177352D01*
X0091300Y0176354D02*
X0089200Y0176354D01*
X0089200Y0175355D02*
X0091300Y0175355D01*
X0091300Y0174357D02*
X0089200Y0174357D01*
X0089200Y0173358D02*
X0091300Y0173358D01*
X0091300Y0172360D02*
X0089200Y0172360D01*
X0089200Y0171361D02*
X0091300Y0171361D01*
X0091300Y0170363D02*
X0089200Y0170363D01*
X0089200Y0169364D02*
X0091300Y0169364D01*
X0091300Y0168366D02*
X0089200Y0168366D01*
X0089200Y0167367D02*
X0091300Y0167367D01*
X0091300Y0166369D02*
X0089200Y0166369D01*
X0089200Y0165370D02*
X0091300Y0165370D01*
X0091300Y0164372D02*
X0089200Y0164372D01*
X0089200Y0163373D02*
X0091300Y0163373D01*
X0091300Y0162375D02*
X0089200Y0162375D01*
X0089200Y0161376D02*
X0091300Y0161376D01*
X0091300Y0160378D02*
X0089200Y0160378D01*
X0089200Y0159379D02*
X0091300Y0159379D01*
X0091300Y0158381D02*
X0089200Y0158381D01*
X0089200Y0157382D02*
X0091300Y0157382D01*
X0091300Y0156384D02*
X0089200Y0156384D01*
X0089200Y0155385D02*
X0091300Y0155385D01*
X0091300Y0154387D02*
X0089200Y0154387D01*
X0089200Y0153388D02*
X0091300Y0153388D01*
X0091300Y0152390D02*
X0089200Y0152390D01*
X0089200Y0151391D02*
X0091300Y0151391D01*
X0091300Y0150393D02*
X0089200Y0150393D01*
X0089200Y0149394D02*
X0091300Y0149394D01*
X0091300Y0148396D02*
X0089200Y0148396D01*
X0089200Y0147397D02*
X0091300Y0147397D01*
X0091300Y0146399D02*
X0089200Y0146399D01*
X0089200Y0145400D02*
X0091300Y0145400D01*
X0091300Y0144402D02*
X0089200Y0144402D01*
X0089200Y0143403D02*
X0091300Y0143403D01*
X0091300Y0142405D02*
X0089200Y0142405D01*
X0089200Y0141406D02*
X0091300Y0141406D01*
X0091300Y0140408D02*
X0089600Y0140408D01*
X0089200Y0140808D02*
X0089200Y0219239D01*
X0090288Y0220327D01*
X0090878Y0221752D01*
X0090878Y0223295D01*
X0090288Y0224720D01*
X0089197Y0225811D01*
X0087771Y0226402D01*
X0086229Y0226402D01*
X0084803Y0225811D01*
X0083712Y0224720D01*
X0083122Y0223295D01*
X0083122Y0221752D01*
X0083712Y0220327D01*
X0084800Y0219239D01*
X0084800Y0140808D01*
X0083712Y0139720D01*
X0083122Y0138295D01*
X0083122Y0136752D01*
X0083712Y0135327D01*
X0084803Y0134236D01*
X0086229Y0133646D01*
X0087771Y0133646D01*
X0089197Y0134236D01*
X0090288Y0135327D01*
X0090878Y0136752D01*
X0090878Y0138295D01*
X0090288Y0139720D01*
X0089200Y0140808D01*
X0090417Y0139409D02*
X0091300Y0139409D01*
X0091300Y0138410D02*
X0090830Y0138410D01*
X0090878Y0137412D02*
X0091300Y0137412D01*
X0091300Y0136413D02*
X0090738Y0136413D01*
X0090324Y0135415D02*
X0091300Y0135415D01*
X0091300Y0134416D02*
X0089377Y0134416D01*
X0091300Y0133418D02*
X0066900Y0133418D01*
X0066900Y0134416D02*
X0084623Y0134416D01*
X0083676Y0135415D02*
X0066245Y0135415D01*
X0065247Y0136413D02*
X0083262Y0136413D01*
X0083122Y0137412D02*
X0064248Y0137412D01*
X0065024Y0138410D02*
X0083170Y0138410D01*
X0083583Y0139409D02*
X0066022Y0139409D01*
X0068995Y0140408D02*
X0084400Y0140408D01*
X0084800Y0141406D02*
X0069994Y0141406D01*
X0070992Y0142405D02*
X0084800Y0142405D01*
X0084800Y0143403D02*
X0071991Y0143403D01*
X0072989Y0144402D02*
X0084800Y0144402D01*
X0084800Y0145400D02*
X0073988Y0145400D01*
X0074200Y0146399D02*
X0084800Y0146399D01*
X0084800Y0147397D02*
X0074200Y0147397D01*
X0074200Y0148396D02*
X0084800Y0148396D01*
X0084800Y0149394D02*
X0074200Y0149394D01*
X0074200Y0150393D02*
X0084800Y0150393D01*
X0084800Y0151391D02*
X0074200Y0151391D01*
X0069800Y0151391D02*
X0066900Y0151391D01*
X0066900Y0150393D02*
X0069800Y0150393D01*
X0069800Y0149394D02*
X0066007Y0149394D01*
X0065009Y0148396D02*
X0069800Y0148396D01*
X0069762Y0147397D02*
X0064263Y0147397D01*
X0065262Y0146399D02*
X0068764Y0146399D01*
X0067765Y0145400D02*
X0066260Y0145400D01*
X0068000Y0142524D02*
X0072000Y0146524D01*
X0072000Y0168524D01*
X0068000Y0172524D01*
X0036000Y0172524D01*
X0026000Y0162524D01*
X0015000Y0162524D01*
X0011208Y0166369D02*
X0006714Y0166369D01*
X0006714Y0167367D02*
X0012583Y0167367D01*
X0011521Y0168366D02*
X0006714Y0168366D01*
X0006714Y0169364D02*
X0010523Y0169364D01*
X0010050Y0170363D02*
X0006714Y0170363D01*
X0006714Y0171361D02*
X0009637Y0171361D01*
X0009600Y0172360D02*
X0006714Y0172360D01*
X0006714Y0173358D02*
X0009600Y0173358D01*
X0009914Y0174357D02*
X0006714Y0174357D01*
X0006714Y0175355D02*
X0010328Y0175355D01*
X0011194Y0176354D02*
X0006714Y0176354D01*
X0006714Y0177352D02*
X0012547Y0177352D01*
X0011536Y0178351D02*
X0006714Y0178351D01*
X0006714Y0179349D02*
X0010537Y0179349D01*
X0010056Y0180348D02*
X0006714Y0180348D01*
X0006714Y0181346D02*
X0009643Y0181346D01*
X0009600Y0182345D02*
X0006714Y0182345D01*
X0006714Y0183343D02*
X0009600Y0183343D01*
X0009908Y0184342D02*
X0006714Y0184342D01*
X0006714Y0185341D02*
X0010322Y0185341D01*
X0011179Y0186339D02*
X0006714Y0186339D01*
X0006714Y0187338D02*
X0012511Y0187338D01*
X0011551Y0188336D02*
X0006714Y0188336D01*
X0006714Y0189335D02*
X0010552Y0189335D01*
X0010062Y0190333D02*
X0006714Y0190333D01*
X0006714Y0191332D02*
X0009649Y0191332D01*
X0009600Y0192330D02*
X0006714Y0192330D01*
X0006714Y0193329D02*
X0009600Y0193329D01*
X0009902Y0194327D02*
X0006714Y0194327D01*
X0006714Y0195326D02*
X0010316Y0195326D01*
X0011164Y0196324D02*
X0006714Y0196324D01*
X0006714Y0197323D02*
X0012475Y0197323D01*
X0018427Y0203314D02*
X0084800Y0203314D01*
X0084800Y0204312D02*
X0019425Y0204312D01*
X0019928Y0205311D02*
X0084800Y0205311D01*
X0084800Y0206309D02*
X0020342Y0206309D01*
X0020400Y0207308D02*
X0084800Y0207308D01*
X0084800Y0208306D02*
X0020400Y0208306D01*
X0020107Y0209305D02*
X0084800Y0209305D01*
X0084800Y0210303D02*
X0019694Y0210303D01*
X0018859Y0211302D02*
X0084800Y0211302D01*
X0084800Y0212300D02*
X0017579Y0212300D01*
X0018412Y0213299D02*
X0084800Y0213299D01*
X0084800Y0214297D02*
X0019410Y0214297D01*
X0019922Y0215296D02*
X0084800Y0215296D01*
X0084800Y0216294D02*
X0020336Y0216294D01*
X0020400Y0217293D02*
X0084800Y0217293D01*
X0084800Y0218291D02*
X0020400Y0218291D01*
X0020113Y0219290D02*
X0084749Y0219290D01*
X0083751Y0220288D02*
X0019700Y0220288D01*
X0018873Y0221287D02*
X0083315Y0221287D01*
X0083122Y0222285D02*
X0017615Y0222285D01*
X0018397Y0223284D02*
X0083122Y0223284D01*
X0083531Y0224282D02*
X0019396Y0224282D01*
X0019916Y0225281D02*
X0084273Y0225281D01*
X0085934Y0226279D02*
X0020330Y0226279D01*
X0020400Y0227278D02*
X0096589Y0227278D01*
X0096922Y0228082D02*
X0096100Y0226098D01*
X0096100Y0223949D01*
X0096922Y0221965D01*
X0098441Y0220446D01*
X0099460Y0220024D01*
X0098441Y0219602D01*
X0096922Y0218082D01*
X0096100Y0216098D01*
X0096100Y0213949D01*
X0096922Y0211965D01*
X0098441Y0210446D01*
X0100426Y0209624D01*
X0100960Y0209624D01*
X0108621Y0201963D01*
X0110165Y0201324D01*
X0113803Y0201324D01*
X0114045Y0201224D01*
X0120955Y0201224D01*
X0122536Y0201878D01*
X0123745Y0203088D01*
X0124400Y0204668D01*
X0124400Y0206379D01*
X0123745Y0207959D01*
X0122536Y0209169D01*
X0120955Y0209824D01*
X0114045Y0209824D01*
X0113803Y0209724D01*
X0112740Y0209724D01*
X0106900Y0215563D01*
X0106900Y0216098D01*
X0106078Y0218082D01*
X0104559Y0219602D01*
X0103540Y0220024D01*
X0104559Y0220446D01*
X0106078Y0221965D01*
X0106900Y0223949D01*
X0106900Y0224484D01*
X0113740Y0231324D01*
X0113803Y0231324D01*
X0114045Y0231224D01*
X0120955Y0231224D01*
X0122536Y0231878D01*
X0123745Y0233088D01*
X0124400Y0234668D01*
X0124400Y0236379D01*
X0123745Y0237959D01*
X0122536Y0239169D01*
X0120955Y0239824D01*
X0114045Y0239824D01*
X0113803Y0239724D01*
X0111165Y0239724D01*
X0109621Y0239084D01*
X0100960Y0230424D01*
X0100426Y0230424D01*
X0098441Y0229602D01*
X0096922Y0228082D01*
X0097116Y0228277D02*
X0020400Y0228277D01*
X0020119Y0229275D02*
X0098115Y0229275D01*
X0100064Y0230274D02*
X0019706Y0230274D01*
X0018888Y0231272D02*
X0101809Y0231272D01*
X0102807Y0232271D02*
X0017651Y0232271D01*
X0018382Y0233269D02*
X0103806Y0233269D01*
X0104804Y0234268D02*
X0019381Y0234268D01*
X0019910Y0235266D02*
X0105803Y0235266D01*
X0106801Y0236265D02*
X0020323Y0236265D01*
X0020400Y0237263D02*
X0107800Y0237263D01*
X0108798Y0238262D02*
X0020400Y0238262D01*
X0020126Y0239260D02*
X0110046Y0239260D01*
X0112464Y0241878D02*
X0114045Y0241224D01*
X0120955Y0241224D01*
X0122536Y0241878D01*
X0123745Y0243088D01*
X0124400Y0244668D01*
X0124400Y0246379D01*
X0123745Y0247959D01*
X0122536Y0249169D01*
X0120955Y0249824D01*
X0114045Y0249824D01*
X0112464Y0249169D01*
X0111255Y0247959D01*
X0110600Y0246379D01*
X0110600Y0244668D01*
X0111255Y0243088D01*
X0112464Y0241878D01*
X0112087Y0242256D02*
X0017687Y0242256D01*
X0018367Y0243254D02*
X0111186Y0243254D01*
X0110772Y0244253D02*
X0019366Y0244253D01*
X0019904Y0245251D02*
X0110600Y0245251D01*
X0110600Y0246250D02*
X0020317Y0246250D01*
X0020400Y0247248D02*
X0110960Y0247248D01*
X0111542Y0248247D02*
X0020400Y0248247D01*
X0020132Y0249245D02*
X0112648Y0249245D01*
X0114000Y0251242D02*
X0018918Y0251242D01*
X0019718Y0250244D02*
X0126179Y0250244D01*
X0127177Y0249245D02*
X0122352Y0249245D01*
X0123458Y0248247D02*
X0128176Y0248247D01*
X0129174Y0247248D02*
X0124040Y0247248D01*
X0124400Y0246250D02*
X0129600Y0246250D01*
X0129600Y0246822D02*
X0129600Y0188424D01*
X0123281Y0188424D01*
X0122536Y0189169D01*
X0120955Y0189824D01*
X0114045Y0189824D01*
X0112464Y0189169D01*
X0111255Y0187959D01*
X0111157Y0187724D01*
X0104189Y0187724D01*
X0103189Y0186724D01*
X0100219Y0186724D01*
X0097700Y0184205D01*
X0097700Y0180643D01*
X0100219Y0178124D01*
X0103781Y0178124D01*
X0106300Y0180643D01*
X0106300Y0183324D01*
X0111157Y0183324D01*
X0111255Y0183088D01*
X0112464Y0181878D01*
X0114045Y0181224D01*
X0120955Y0181224D01*
X0122536Y0181878D01*
X0123281Y0182624D01*
X0130100Y0182624D01*
X0130100Y0172725D01*
X0122981Y0165606D01*
X0122455Y0165824D01*
X0115545Y0165824D01*
X0113964Y0165169D01*
X0112755Y0163959D01*
X0112100Y0162379D01*
X0112100Y0160668D01*
X0112755Y0159088D01*
X0113964Y0157878D01*
X0115545Y0157224D01*
X0122455Y0157224D01*
X0124036Y0157878D01*
X0124781Y0158624D01*
X0125799Y0158624D01*
X0131100Y0153322D01*
X0131100Y0094424D01*
X0124781Y0094424D01*
X0124036Y0095169D01*
X0122455Y0095824D01*
X0115545Y0095824D01*
X0113964Y0095169D01*
X0112755Y0093959D01*
X0112100Y0092379D01*
X0112100Y0090668D01*
X0112755Y0089088D01*
X0113964Y0087878D01*
X0115545Y0087224D01*
X0122455Y0087224D01*
X0124036Y0087878D01*
X0124781Y0088624D01*
X0143219Y0088624D01*
X0143964Y0087878D01*
X0145545Y0087224D01*
X0152455Y0087224D01*
X0154036Y0087878D01*
X0155245Y0089088D01*
X0155900Y0090668D01*
X0155900Y0092379D01*
X0155245Y0093959D01*
X0154036Y0095169D01*
X0152455Y0095824D01*
X0145545Y0095824D01*
X0143964Y0095169D01*
X0143219Y0094424D01*
X0136900Y0094424D01*
X0136900Y0155100D01*
X0136458Y0156166D01*
X0135643Y0156982D01*
X0135643Y0156982D01*
X0129458Y0163166D01*
X0129101Y0163524D01*
X0134643Y0169065D01*
X0135458Y0169881D01*
X0135800Y0170705D01*
X0135800Y0167205D01*
X0135315Y0167205D01*
X0134319Y0166209D01*
X0134319Y0160838D01*
X0135315Y0159843D01*
X0140685Y0159843D01*
X0141681Y0160838D01*
X0141681Y0166209D01*
X0140685Y0167205D01*
X0140200Y0167205D01*
X0140200Y0174843D01*
X0141685Y0174843D01*
X0142681Y0175838D01*
X0142681Y0181209D01*
X0141685Y0182205D01*
X0136315Y0182205D01*
X0135900Y0181790D01*
X0135900Y0182624D01*
X0141719Y0182624D01*
X0142464Y0181878D01*
X0144045Y0181224D01*
X0150955Y0181224D01*
X0152536Y0181878D01*
X0153745Y0183088D01*
X0154400Y0184668D01*
X0154400Y0186379D01*
X0153745Y0187959D01*
X0152536Y0189169D01*
X0150955Y0189824D01*
X0144045Y0189824D01*
X0142464Y0189169D01*
X0141719Y0188424D01*
X0135400Y0188424D01*
X0135400Y0248512D01*
X0135589Y0248324D01*
X0140589Y0243324D01*
X0141157Y0243324D01*
X0141255Y0243088D01*
X0142464Y0241878D01*
X0144045Y0241224D01*
X0150955Y0241224D01*
X0152536Y0241878D01*
X0153745Y0243088D01*
X0154400Y0244668D01*
X0154400Y0246379D01*
X0153745Y0247959D01*
X0152536Y0249169D01*
X0150955Y0249824D01*
X0144045Y0249824D01*
X0142464Y0249169D01*
X0141715Y0248420D01*
X0138700Y0251435D01*
X0138700Y0261935D01*
X0137411Y0263224D01*
X0135200Y0265435D01*
X0133911Y0266724D01*
X0076284Y0266724D01*
X0075197Y0267811D01*
X0073771Y0268402D01*
X0072229Y0268402D01*
X0070803Y0267811D01*
X0069712Y0266720D01*
X0069122Y0265295D01*
X0069122Y0263752D01*
X0069712Y0262327D01*
X0070803Y0261236D01*
X0072229Y0260646D01*
X0073771Y0260646D01*
X0075197Y0261236D01*
X0076284Y0262324D01*
X0132089Y0262324D01*
X0134300Y0260112D01*
X0134300Y0250325D01*
X0134143Y0250482D01*
X0126643Y0257982D01*
X0125577Y0258424D01*
X0123281Y0258424D01*
X0122536Y0259169D01*
X0120955Y0259824D01*
X0114045Y0259824D01*
X0112464Y0259169D01*
X0111255Y0257959D01*
X0110600Y0256379D01*
X0110600Y0254668D01*
X0111255Y0253088D01*
X0112464Y0251878D01*
X0114045Y0251224D01*
X0120955Y0251224D01*
X0122536Y0251878D01*
X0123281Y0252624D01*
X0123799Y0252624D01*
X0129600Y0246822D01*
X0129600Y0245251D02*
X0124400Y0245251D01*
X0124228Y0244253D02*
X0129600Y0244253D01*
X0129600Y0243254D02*
X0123814Y0243254D01*
X0122913Y0242256D02*
X0129600Y0242256D01*
X0129600Y0241257D02*
X0121036Y0241257D01*
X0122316Y0239260D02*
X0129600Y0239260D01*
X0129600Y0238262D02*
X0123443Y0238262D01*
X0124034Y0237263D02*
X0129600Y0237263D01*
X0129600Y0236265D02*
X0124400Y0236265D01*
X0124400Y0235266D02*
X0129600Y0235266D01*
X0129600Y0234268D02*
X0124234Y0234268D01*
X0123820Y0233269D02*
X0129600Y0233269D01*
X0129600Y0232271D02*
X0122928Y0232271D01*
X0121072Y0231272D02*
X0129600Y0231272D01*
X0129600Y0230274D02*
X0112690Y0230274D01*
X0113232Y0229275D02*
X0111691Y0229275D01*
X0112229Y0228651D02*
X0111773Y0228195D01*
X0111393Y0227672D01*
X0111100Y0227097D01*
X0110901Y0226484D01*
X0110800Y0225846D01*
X0110800Y0225824D01*
X0117200Y0225824D01*
X0117200Y0229624D01*
X0114577Y0229624D01*
X0113940Y0229523D01*
X0113326Y0229323D01*
X0112751Y0229030D01*
X0112229Y0228651D01*
X0111855Y0228277D02*
X0110693Y0228277D01*
X0111192Y0227278D02*
X0109694Y0227278D01*
X0108696Y0226279D02*
X0110869Y0226279D01*
X0110800Y0225224D02*
X0110800Y0225201D01*
X0110901Y0224564D01*
X0111100Y0223950D01*
X0111393Y0223375D01*
X0111773Y0222853D01*
X0112229Y0222396D01*
X0112751Y0222017D01*
X0113326Y0221724D01*
X0113940Y0221525D01*
X0114577Y0221424D01*
X0117200Y0221424D01*
X0117200Y0225224D01*
X0110800Y0225224D01*
X0110992Y0224282D02*
X0106900Y0224282D01*
X0106624Y0223284D02*
X0111459Y0223284D01*
X0112382Y0222285D02*
X0106211Y0222285D01*
X0105400Y0221287D02*
X0129600Y0221287D01*
X0129600Y0222285D02*
X0122618Y0222285D01*
X0122771Y0222396D02*
X0123227Y0222853D01*
X0123607Y0223375D01*
X0123900Y0223950D01*
X0124099Y0224564D01*
X0124200Y0225201D01*
X0124200Y0225224D01*
X0117800Y0225224D01*
X0117800Y0225824D01*
X0117200Y0225824D01*
X0117200Y0225224D01*
X0117800Y0225224D01*
X0117800Y0221424D01*
X0120423Y0221424D01*
X0121060Y0221525D01*
X0121674Y0221724D01*
X0122249Y0222017D01*
X0122771Y0222396D01*
X0123541Y0223284D02*
X0129600Y0223284D01*
X0129600Y0224282D02*
X0124008Y0224282D01*
X0124200Y0225824D02*
X0124200Y0225846D01*
X0124099Y0226484D01*
X0123900Y0227097D01*
X0123607Y0227672D01*
X0123227Y0228195D01*
X0122771Y0228651D01*
X0122249Y0229030D01*
X0121674Y0229323D01*
X0121060Y0229523D01*
X0120423Y0229624D01*
X0117800Y0229624D01*
X0117800Y0225824D01*
X0124200Y0225824D01*
X0124131Y0226279D02*
X0129600Y0226279D01*
X0129600Y0225281D02*
X0117800Y0225281D01*
X0117200Y0225281D02*
X0107697Y0225281D01*
X0104179Y0220288D02*
X0129600Y0220288D01*
X0129600Y0219290D02*
X0121739Y0219290D01*
X0121674Y0219323D02*
X0121060Y0219523D01*
X0120423Y0219624D01*
X0117800Y0219624D01*
X0117800Y0215824D01*
X0117200Y0215824D01*
X0117200Y0219624D01*
X0114577Y0219624D01*
X0113940Y0219523D01*
X0113326Y0219323D01*
X0112751Y0219030D01*
X0112229Y0218651D01*
X0111773Y0218195D01*
X0111393Y0217672D01*
X0111100Y0217097D01*
X0110901Y0216484D01*
X0110800Y0215846D01*
X0110800Y0215824D01*
X0117200Y0215824D01*
X0117200Y0215224D01*
X0110800Y0215224D01*
X0110800Y0215201D01*
X0110901Y0214564D01*
X0111100Y0213950D01*
X0111393Y0213375D01*
X0111773Y0212853D01*
X0112229Y0212396D01*
X0112751Y0212017D01*
X0113326Y0211724D01*
X0113940Y0211525D01*
X0114577Y0211424D01*
X0117200Y0211424D01*
X0117200Y0215224D01*
X0117800Y0215224D01*
X0117800Y0215824D01*
X0124200Y0215824D01*
X0124200Y0215846D01*
X0124099Y0216484D01*
X0123900Y0217097D01*
X0123607Y0217672D01*
X0123227Y0218195D01*
X0122771Y0218651D01*
X0122249Y0219030D01*
X0121674Y0219323D01*
X0123130Y0218291D02*
X0129600Y0218291D01*
X0129600Y0217293D02*
X0123800Y0217293D01*
X0124129Y0216294D02*
X0129600Y0216294D01*
X0129600Y0215296D02*
X0117800Y0215296D01*
X0117800Y0215224D02*
X0124200Y0215224D01*
X0124200Y0215201D01*
X0124099Y0214564D01*
X0123900Y0213950D01*
X0123607Y0213375D01*
X0123227Y0212853D01*
X0122771Y0212396D01*
X0122249Y0212017D01*
X0121674Y0211724D01*
X0121060Y0211525D01*
X0120423Y0211424D01*
X0117800Y0211424D01*
X0117800Y0215224D01*
X0117200Y0215296D02*
X0107167Y0215296D01*
X0106819Y0216294D02*
X0110871Y0216294D01*
X0111200Y0217293D02*
X0106405Y0217293D01*
X0105869Y0218291D02*
X0111869Y0218291D01*
X0113261Y0219290D02*
X0104870Y0219290D01*
X0108166Y0214297D02*
X0110987Y0214297D01*
X0111449Y0213299D02*
X0109164Y0213299D01*
X0110163Y0212300D02*
X0112361Y0212300D01*
X0111161Y0211302D02*
X0129600Y0211302D01*
X0129600Y0212300D02*
X0122639Y0212300D01*
X0123551Y0213299D02*
X0129600Y0213299D01*
X0129600Y0214297D02*
X0124013Y0214297D01*
X0122208Y0209305D02*
X0129600Y0209305D01*
X0129600Y0210303D02*
X0112160Y0210303D01*
X0117200Y0212300D02*
X0117800Y0212300D01*
X0117800Y0213299D02*
X0117200Y0213299D01*
X0117200Y0214297D02*
X0117800Y0214297D01*
X0117800Y0216294D02*
X0117200Y0216294D01*
X0117200Y0217293D02*
X0117800Y0217293D01*
X0117800Y0218291D02*
X0117200Y0218291D01*
X0117200Y0219290D02*
X0117800Y0219290D01*
X0117800Y0222285D02*
X0117200Y0222285D01*
X0117200Y0223284D02*
X0117800Y0223284D01*
X0117800Y0224282D02*
X0117200Y0224282D01*
X0117200Y0226279D02*
X0117800Y0226279D01*
X0117800Y0227278D02*
X0117200Y0227278D01*
X0117200Y0228277D02*
X0117800Y0228277D01*
X0117800Y0229275D02*
X0117200Y0229275D01*
X0113928Y0231272D02*
X0113688Y0231272D01*
X0121768Y0229275D02*
X0129600Y0229275D01*
X0129600Y0228277D02*
X0123145Y0228277D01*
X0123808Y0227278D02*
X0129600Y0227278D01*
X0135400Y0227278D02*
X0141192Y0227278D01*
X0141100Y0227097D02*
X0140901Y0226484D01*
X0140800Y0225846D01*
X0140800Y0225824D01*
X0147200Y0225824D01*
X0147200Y0229624D01*
X0144577Y0229624D01*
X0143940Y0229523D01*
X0143326Y0229323D01*
X0142751Y0229030D01*
X0142229Y0228651D01*
X0141773Y0228195D01*
X0141393Y0227672D01*
X0141100Y0227097D01*
X0140869Y0226279D02*
X0135400Y0226279D01*
X0135400Y0225281D02*
X0147200Y0225281D01*
X0147200Y0225224D02*
X0140800Y0225224D01*
X0140800Y0225201D01*
X0140901Y0224564D01*
X0141100Y0223950D01*
X0141393Y0223375D01*
X0141773Y0222853D01*
X0142229Y0222396D01*
X0142751Y0222017D01*
X0143326Y0221724D01*
X0143940Y0221525D01*
X0144577Y0221424D01*
X0147200Y0221424D01*
X0147200Y0225224D01*
X0147200Y0225824D01*
X0147800Y0225824D01*
X0147800Y0229624D01*
X0150423Y0229624D01*
X0151060Y0229523D01*
X0151674Y0229323D01*
X0152249Y0229030D01*
X0152771Y0228651D01*
X0153227Y0228195D01*
X0153607Y0227672D01*
X0153900Y0227097D01*
X0154099Y0226484D01*
X0154200Y0225846D01*
X0154200Y0225824D01*
X0147800Y0225824D01*
X0147800Y0225224D01*
X0154200Y0225224D01*
X0154200Y0225201D01*
X0154099Y0224564D01*
X0153900Y0223950D01*
X0153607Y0223375D01*
X0153227Y0222853D01*
X0152771Y0222396D01*
X0152249Y0222017D01*
X0151674Y0221724D01*
X0151060Y0221525D01*
X0150423Y0221424D01*
X0147800Y0221424D01*
X0147800Y0225224D01*
X0147200Y0225224D01*
X0147800Y0225281D02*
X0156803Y0225281D01*
X0157600Y0224484D02*
X0157600Y0223949D01*
X0158422Y0221965D01*
X0159941Y0220446D01*
X0160960Y0220024D01*
X0159941Y0219602D01*
X0158422Y0218082D01*
X0157600Y0216098D01*
X0157600Y0215563D01*
X0151760Y0209724D01*
X0151197Y0209724D01*
X0150955Y0209824D01*
X0144045Y0209824D01*
X0142464Y0209169D01*
X0141255Y0207959D01*
X0140600Y0206379D01*
X0140600Y0204668D01*
X0141255Y0203088D01*
X0142464Y0201878D01*
X0144045Y0201224D01*
X0150955Y0201224D01*
X0151197Y0201324D01*
X0154335Y0201324D01*
X0155879Y0201963D01*
X0163540Y0209624D01*
X0164074Y0209624D01*
X0166059Y0210446D01*
X0167578Y0211965D01*
X0168400Y0213949D01*
X0168400Y0216098D01*
X0167578Y0218082D01*
X0166059Y0219602D01*
X0165040Y0220024D01*
X0166059Y0220446D01*
X0167578Y0221965D01*
X0168400Y0223949D01*
X0168400Y0226098D01*
X0167578Y0228082D01*
X0166059Y0229602D01*
X0164074Y0230424D01*
X0163540Y0230424D01*
X0154879Y0239084D01*
X0153335Y0239724D01*
X0151197Y0239724D01*
X0150955Y0239824D01*
X0144045Y0239824D01*
X0142464Y0239169D01*
X0141255Y0237959D01*
X0140600Y0236379D01*
X0140600Y0234668D01*
X0141255Y0233088D01*
X0142464Y0231878D01*
X0144045Y0231224D01*
X0150860Y0231224D01*
X0157600Y0224484D01*
X0157600Y0224282D02*
X0154008Y0224282D01*
X0153541Y0223284D02*
X0157876Y0223284D01*
X0158289Y0222285D02*
X0152618Y0222285D01*
X0151674Y0219323D02*
X0151060Y0219523D01*
X0150423Y0219624D01*
X0147800Y0219624D01*
X0147800Y0215824D01*
X0147200Y0215824D01*
X0147200Y0219624D01*
X0144577Y0219624D01*
X0143940Y0219523D01*
X0143326Y0219323D01*
X0142751Y0219030D01*
X0142229Y0218651D01*
X0141773Y0218195D01*
X0141393Y0217672D01*
X0141100Y0217097D01*
X0140901Y0216484D01*
X0140800Y0215846D01*
X0140800Y0215824D01*
X0147200Y0215824D01*
X0147200Y0215224D01*
X0140800Y0215224D01*
X0140800Y0215201D01*
X0140901Y0214564D01*
X0141100Y0213950D01*
X0141393Y0213375D01*
X0141773Y0212853D01*
X0142229Y0212396D01*
X0142751Y0212017D01*
X0143326Y0211724D01*
X0143940Y0211525D01*
X0144577Y0211424D01*
X0147200Y0211424D01*
X0147200Y0215224D01*
X0147800Y0215224D01*
X0147800Y0215824D01*
X0154200Y0215824D01*
X0154200Y0215846D01*
X0154099Y0216484D01*
X0153900Y0217097D01*
X0153607Y0217672D01*
X0153227Y0218195D01*
X0152771Y0218651D01*
X0152249Y0219030D01*
X0151674Y0219323D01*
X0151739Y0219290D02*
X0159630Y0219290D01*
X0160321Y0220288D02*
X0135400Y0220288D01*
X0135400Y0219290D02*
X0143261Y0219290D01*
X0141869Y0218291D02*
X0135400Y0218291D01*
X0135400Y0217293D02*
X0141200Y0217293D01*
X0140871Y0216294D02*
X0135400Y0216294D01*
X0135400Y0215296D02*
X0147200Y0215296D01*
X0147800Y0215296D02*
X0157333Y0215296D01*
X0157681Y0216294D02*
X0154129Y0216294D01*
X0153800Y0217293D02*
X0158095Y0217293D01*
X0158631Y0218291D02*
X0153130Y0218291D01*
X0154200Y0215224D02*
X0147800Y0215224D01*
X0147800Y0211424D01*
X0150423Y0211424D01*
X0151060Y0211525D01*
X0151674Y0211724D01*
X0152249Y0212017D01*
X0152771Y0212396D01*
X0153227Y0212853D01*
X0153607Y0213375D01*
X0153900Y0213950D01*
X0154099Y0214564D01*
X0154200Y0215201D01*
X0154200Y0215224D01*
X0154013Y0214297D02*
X0156334Y0214297D01*
X0155336Y0213299D02*
X0153551Y0213299D01*
X0154337Y0212300D02*
X0152639Y0212300D01*
X0153339Y0211302D02*
X0135400Y0211302D01*
X0135400Y0212300D02*
X0142361Y0212300D01*
X0141449Y0213299D02*
X0135400Y0213299D01*
X0135400Y0214297D02*
X0140987Y0214297D01*
X0142792Y0209305D02*
X0135400Y0209305D01*
X0135400Y0210303D02*
X0152340Y0210303D01*
X0147800Y0212300D02*
X0147200Y0212300D01*
X0147200Y0213299D02*
X0147800Y0213299D01*
X0147800Y0214297D02*
X0147200Y0214297D01*
X0147200Y0216294D02*
X0147800Y0216294D01*
X0147800Y0217293D02*
X0147200Y0217293D01*
X0147200Y0218291D02*
X0147800Y0218291D01*
X0147800Y0219290D02*
X0147200Y0219290D01*
X0147200Y0222285D02*
X0147800Y0222285D01*
X0147800Y0223284D02*
X0147200Y0223284D01*
X0147200Y0224282D02*
X0147800Y0224282D01*
X0147800Y0226279D02*
X0147200Y0226279D01*
X0147200Y0227278D02*
X0147800Y0227278D01*
X0147800Y0228277D02*
X0147200Y0228277D01*
X0147200Y0229275D02*
X0147800Y0229275D01*
X0151768Y0229275D02*
X0152809Y0229275D01*
X0153145Y0228277D02*
X0153807Y0228277D01*
X0153808Y0227278D02*
X0154806Y0227278D01*
X0154131Y0226279D02*
X0155804Y0226279D01*
X0151810Y0230274D02*
X0135400Y0230274D01*
X0135400Y0231272D02*
X0143928Y0231272D01*
X0142072Y0232271D02*
X0135400Y0232271D01*
X0135400Y0233269D02*
X0141180Y0233269D01*
X0140766Y0234268D02*
X0135400Y0234268D01*
X0135400Y0235266D02*
X0140600Y0235266D01*
X0140600Y0236265D02*
X0135400Y0236265D01*
X0135400Y0237263D02*
X0140966Y0237263D01*
X0141557Y0238262D02*
X0135400Y0238262D01*
X0135400Y0239260D02*
X0142684Y0239260D01*
X0143964Y0241257D02*
X0135400Y0241257D01*
X0135400Y0240259D02*
X0163325Y0240259D01*
X0162327Y0241257D02*
X0151036Y0241257D01*
X0152913Y0242256D02*
X0161328Y0242256D01*
X0160330Y0243254D02*
X0153814Y0243254D01*
X0154228Y0244253D02*
X0159331Y0244253D01*
X0158333Y0245251D02*
X0154400Y0245251D01*
X0154400Y0246250D02*
X0157334Y0246250D01*
X0156336Y0247248D02*
X0154040Y0247248D01*
X0153458Y0248247D02*
X0155337Y0248247D01*
X0154939Y0248645D02*
X0154300Y0250188D01*
X0154300Y0251324D01*
X0151197Y0251324D01*
X0150955Y0251224D01*
X0144045Y0251224D01*
X0142464Y0251878D01*
X0141255Y0253088D01*
X0140600Y0254668D01*
X0140600Y0256379D01*
X0141255Y0257959D01*
X0142464Y0259169D01*
X0144045Y0259824D01*
X0146199Y0259824D01*
X0147165Y0260224D01*
X0148835Y0260224D01*
X0149801Y0259824D01*
X0150955Y0259824D01*
X0151197Y0259724D01*
X0158335Y0259724D01*
X0159879Y0259084D01*
X0160140Y0258824D01*
X0160281Y0258824D01*
X0162800Y0256305D01*
X0162800Y0252743D01*
X0162760Y0252703D01*
X0187379Y0228084D01*
X0188561Y0226903D01*
X0189200Y0225359D01*
X0189200Y0211724D01*
X0201563Y0211724D01*
X0201941Y0212102D01*
X0203926Y0212924D01*
X0206074Y0212924D01*
X0208059Y0212102D01*
X0209578Y0210582D01*
X0210400Y0208598D01*
X0210400Y0206449D01*
X0209578Y0204465D01*
X0208059Y0202946D01*
X0206776Y0202414D01*
X0206996Y0202343D01*
X0207725Y0201971D01*
X0208388Y0201490D01*
X0208966Y0200911D01*
X0209447Y0200249D01*
X0209819Y0199520D01*
X0210072Y0198741D01*
X0210186Y0198024D01*
X0205500Y0198024D01*
X0205500Y0197024D01*
X0210186Y0197024D01*
X0210072Y0196306D01*
X0209819Y0195528D01*
X0209447Y0194798D01*
X0208966Y0194136D01*
X0208388Y0193557D01*
X0207725Y0193076D01*
X0206996Y0192705D01*
X0206439Y0192524D01*
X0206996Y0192343D01*
X0207725Y0191971D01*
X0208388Y0191490D01*
X0208966Y0190911D01*
X0209447Y0190249D01*
X0209819Y0189520D01*
X0210072Y0188741D01*
X0210186Y0188024D01*
X0205500Y0188024D01*
X0204500Y0188024D01*
X0204500Y0197024D01*
X0199814Y0197024D01*
X0199928Y0196306D01*
X0200181Y0195528D01*
X0200553Y0194798D01*
X0201034Y0194136D01*
X0201612Y0193557D01*
X0202275Y0193076D01*
X0203004Y0192705D01*
X0203561Y0192524D01*
X0203004Y0192343D01*
X0202275Y0191971D01*
X0201612Y0191490D01*
X0201034Y0190911D01*
X0200553Y0190249D01*
X0200181Y0189520D01*
X0199928Y0188741D01*
X0199814Y0188024D01*
X0204500Y0188024D01*
X0204500Y0187024D01*
X0199814Y0187024D01*
X0199928Y0186306D01*
X0200181Y0185528D01*
X0200553Y0184798D01*
X0201034Y0184136D01*
X0201612Y0183557D01*
X0202275Y0183076D01*
X0203004Y0182705D01*
X0203224Y0182633D01*
X0201941Y0182102D01*
X0200422Y0180582D01*
X0199600Y0178598D01*
X0199600Y0176449D01*
X0200422Y0174465D01*
X0201941Y0172946D01*
X0202960Y0172524D01*
X0201941Y0172102D01*
X0200422Y0170582D01*
X0199600Y0168598D01*
X0199600Y0166449D01*
X0200422Y0164465D01*
X0201941Y0162946D01*
X0202960Y0162524D01*
X0201941Y0162102D01*
X0200422Y0160582D01*
X0199600Y0158598D01*
X0199600Y0156449D01*
X0200422Y0154465D01*
X0201941Y0152946D01*
X0202960Y0152524D01*
X0201941Y0152102D01*
X0200422Y0150582D01*
X0199600Y0148598D01*
X0199600Y0146449D01*
X0200422Y0144465D01*
X0201941Y0142946D01*
X0202960Y0142524D01*
X0201941Y0142102D01*
X0200422Y0140582D01*
X0199600Y0138598D01*
X0199600Y0136449D01*
X0200422Y0134465D01*
X0201941Y0132946D01*
X0203926Y0132124D01*
X0206074Y0132124D01*
X0208059Y0132946D01*
X0209578Y0134465D01*
X0210400Y0136449D01*
X0210400Y0138598D01*
X0209578Y0140582D01*
X0208059Y0142102D01*
X0207040Y0142524D01*
X0208059Y0142946D01*
X0209578Y0144465D01*
X0210400Y0146449D01*
X0210400Y0148598D01*
X0209578Y0150582D01*
X0208059Y0152102D01*
X0207040Y0152524D01*
X0208059Y0152946D01*
X0209578Y0154465D01*
X0210400Y0156449D01*
X0210400Y0158598D01*
X0209578Y0160582D01*
X0208059Y0162102D01*
X0207040Y0162524D01*
X0208059Y0162946D01*
X0209578Y0164465D01*
X0210400Y0166449D01*
X0210400Y0168598D01*
X0209578Y0170582D01*
X0208059Y0172102D01*
X0207040Y0172524D01*
X0208059Y0172946D01*
X0209578Y0174465D01*
X0210400Y0176449D01*
X0210400Y0178598D01*
X0209578Y0180582D01*
X0208059Y0182102D01*
X0206776Y0182633D01*
X0206996Y0182705D01*
X0207725Y0183076D01*
X0208388Y0183557D01*
X0208966Y0184136D01*
X0209447Y0184798D01*
X0209819Y0185528D01*
X0210072Y0186306D01*
X0210186Y0187024D01*
X0205500Y0187024D01*
X0205500Y0188024D01*
X0205500Y0192338D01*
X0205500Y0197024D01*
X0204500Y0197024D01*
X0204500Y0198024D01*
X0199814Y0198024D01*
X0199928Y0198741D01*
X0200181Y0199520D01*
X0200553Y0200249D01*
X0201034Y0200911D01*
X0201612Y0201490D01*
X0202275Y0201971D01*
X0203004Y0202343D01*
X0203224Y0202414D01*
X0201941Y0202946D01*
X0201563Y0203324D01*
X0176740Y0203324D01*
X0169200Y0195784D01*
X0169200Y0166688D01*
X0168561Y0165145D01*
X0167379Y0163963D01*
X0164940Y0161524D01*
X0165140Y0161324D01*
X0165281Y0161324D01*
X0167800Y0158805D01*
X0167800Y0155243D01*
X0166281Y0153724D01*
X0168589Y0153724D01*
X0171300Y0156435D01*
X0171300Y0188239D01*
X0170212Y0189327D01*
X0169622Y0190752D01*
X0169622Y0192295D01*
X0170212Y0193720D01*
X0171303Y0194811D01*
X0172729Y0195402D01*
X0174271Y0195402D01*
X0175697Y0194811D01*
X0176788Y0193720D01*
X0177378Y0192295D01*
X0177378Y0190752D01*
X0176788Y0189327D01*
X0175700Y0188239D01*
X0175700Y0154612D01*
X0174411Y0153324D01*
X0171700Y0150612D01*
X0171700Y0150612D01*
X0170411Y0149324D01*
X0155343Y0149324D01*
X0155245Y0149088D01*
X0154036Y0147878D01*
X0152455Y0147224D01*
X0145545Y0147224D01*
X0143964Y0147878D01*
X0142755Y0149088D01*
X0142100Y0150668D01*
X0142100Y0152379D01*
X0142755Y0153959D01*
X0143964Y0155169D01*
X0145545Y0155824D01*
X0152455Y0155824D01*
X0154036Y0155169D01*
X0155245Y0153959D01*
X0155343Y0153724D01*
X0160719Y0153724D01*
X0159200Y0155243D01*
X0159200Y0155384D01*
X0157260Y0157324D01*
X0152697Y0157324D01*
X0152455Y0157224D01*
X0145545Y0157224D01*
X0143964Y0157878D01*
X0142755Y0159088D01*
X0142100Y0160668D01*
X0142100Y0162379D01*
X0142755Y0163959D01*
X0143964Y0165169D01*
X0145545Y0165824D01*
X0152455Y0165824D01*
X0152697Y0165724D01*
X0157260Y0165724D01*
X0160800Y0169263D01*
X0160800Y0198359D01*
X0161439Y0199903D01*
X0171439Y0209903D01*
X0172621Y0211084D01*
X0174165Y0211724D01*
X0180800Y0211724D01*
X0180800Y0222784D01*
X0154939Y0248645D01*
X0154691Y0249245D02*
X0152352Y0249245D01*
X0154300Y0250244D02*
X0139891Y0250244D01*
X0138893Y0251242D02*
X0144000Y0251242D01*
X0142102Y0252241D02*
X0138700Y0252241D01*
X0138700Y0253239D02*
X0141192Y0253239D01*
X0140778Y0254238D02*
X0138700Y0254238D01*
X0138700Y0255236D02*
X0140600Y0255236D01*
X0140600Y0256235D02*
X0138700Y0256235D01*
X0138700Y0257233D02*
X0140954Y0257233D01*
X0141527Y0258232D02*
X0138700Y0258232D01*
X0138700Y0259230D02*
X0142612Y0259230D01*
X0138700Y0260229D02*
X0200276Y0260229D01*
X0200422Y0260582D02*
X0199600Y0258598D01*
X0199600Y0256449D01*
X0200422Y0254465D01*
X0201941Y0252946D01*
X0202960Y0252524D01*
X0201941Y0252102D01*
X0200422Y0250582D01*
X0199600Y0248598D01*
X0199600Y0246449D01*
X0200422Y0244465D01*
X0201941Y0242946D01*
X0202960Y0242524D01*
X0201941Y0242102D01*
X0200422Y0240582D01*
X0199600Y0238598D01*
X0199600Y0236449D01*
X0200422Y0234465D01*
X0201941Y0232946D01*
X0202960Y0232524D01*
X0201941Y0232102D01*
X0200422Y0230582D01*
X0199600Y0228598D01*
X0199600Y0226449D01*
X0200422Y0224465D01*
X0201941Y0222946D01*
X0203926Y0222124D01*
X0206074Y0222124D01*
X0208059Y0222946D01*
X0209578Y0224465D01*
X0210400Y0226449D01*
X0210400Y0228598D01*
X0209578Y0230582D01*
X0208059Y0232102D01*
X0207040Y0232524D01*
X0208059Y0232946D01*
X0209578Y0234465D01*
X0210400Y0236449D01*
X0210400Y0238598D01*
X0209578Y0240582D01*
X0208059Y0242102D01*
X0207040Y0242524D01*
X0208059Y0242946D01*
X0209578Y0244465D01*
X0210400Y0246449D01*
X0210400Y0248598D01*
X0209578Y0250582D01*
X0208059Y0252102D01*
X0207040Y0252524D01*
X0208059Y0252946D01*
X0209578Y0254465D01*
X0210400Y0256449D01*
X0210400Y0258598D01*
X0209578Y0260582D01*
X0208059Y0262102D01*
X0207040Y0262524D01*
X0208059Y0262946D01*
X0209578Y0264465D01*
X0210400Y0266449D01*
X0210400Y0268598D01*
X0209578Y0270582D01*
X0208059Y0272102D01*
X0207040Y0272524D01*
X0208059Y0272946D01*
X0209578Y0274465D01*
X0210400Y0276449D01*
X0210400Y0278598D01*
X0209578Y0280582D01*
X0208059Y0282102D01*
X0206074Y0282924D01*
X0203926Y0282924D01*
X0201941Y0282102D01*
X0200422Y0280582D01*
X0199600Y0278598D01*
X0199600Y0276449D01*
X0200422Y0274465D01*
X0201941Y0272946D01*
X0202960Y0272524D01*
X0201941Y0272102D01*
X0200422Y0270582D01*
X0199600Y0268598D01*
X0199600Y0266449D01*
X0200422Y0264465D01*
X0201941Y0262946D01*
X0202960Y0262524D01*
X0201941Y0262102D01*
X0200422Y0260582D01*
X0201067Y0261227D02*
X0138700Y0261227D01*
X0138409Y0262226D02*
X0202241Y0262226D01*
X0201662Y0263224D02*
X0137410Y0263224D01*
X0137411Y0263224D02*
X0137411Y0263224D01*
X0136412Y0264223D02*
X0200664Y0264223D01*
X0200109Y0265221D02*
X0135413Y0265221D01*
X0135200Y0265435D02*
X0135200Y0265435D01*
X0134415Y0266220D02*
X0199695Y0266220D01*
X0199600Y0267218D02*
X0075789Y0267218D01*
X0074217Y0268217D02*
X0199600Y0268217D01*
X0199856Y0269215D02*
X0020144Y0269215D01*
X0020400Y0268217D02*
X0071783Y0268217D01*
X0070211Y0267218D02*
X0020400Y0267218D01*
X0020305Y0266220D02*
X0069505Y0266220D01*
X0069122Y0265221D02*
X0019891Y0265221D01*
X0019336Y0264223D02*
X0069122Y0264223D01*
X0069341Y0263224D02*
X0018338Y0263224D01*
X0017759Y0262226D02*
X0069813Y0262226D01*
X0070824Y0261227D02*
X0053192Y0261227D01*
X0054779Y0260229D02*
X0134183Y0260229D01*
X0134300Y0259230D02*
X0122388Y0259230D01*
X0126040Y0258232D02*
X0134300Y0258232D01*
X0134300Y0257233D02*
X0127391Y0257233D01*
X0128390Y0256235D02*
X0134300Y0256235D01*
X0134300Y0255236D02*
X0129389Y0255236D01*
X0130387Y0254238D02*
X0134300Y0254238D01*
X0134300Y0253239D02*
X0131386Y0253239D01*
X0132384Y0252241D02*
X0134300Y0252241D01*
X0134300Y0251242D02*
X0133383Y0251242D01*
X0136500Y0250524D02*
X0136500Y0261024D01*
X0133000Y0264524D01*
X0073000Y0264524D01*
X0076187Y0262226D02*
X0132186Y0262226D01*
X0133185Y0261227D02*
X0075176Y0261227D01*
X0055878Y0258232D02*
X0111527Y0258232D01*
X0110954Y0257233D02*
X0055878Y0257233D01*
X0055664Y0256235D02*
X0110600Y0256235D01*
X0110600Y0255236D02*
X0055197Y0255236D01*
X0054198Y0254238D02*
X0110778Y0254238D01*
X0111192Y0253239D02*
X0018352Y0253239D01*
X0017723Y0252241D02*
X0112102Y0252241D01*
X0112612Y0259230D02*
X0055491Y0259230D01*
X0052000Y0257524D02*
X0015000Y0257524D01*
X0018933Y0261227D02*
X0050808Y0261227D01*
X0049221Y0260229D02*
X0019724Y0260229D01*
X0019897Y0255236D02*
X0048803Y0255236D01*
X0049802Y0254238D02*
X0019351Y0254238D01*
X0018903Y0241257D02*
X0113964Y0241257D01*
X0121000Y0251242D02*
X0125180Y0251242D01*
X0124182Y0252241D02*
X0122898Y0252241D01*
X0129600Y0240259D02*
X0019712Y0240259D01*
X0015500Y0218024D02*
X0015000Y0217524D01*
X0020351Y0191332D02*
X0051060Y0191332D01*
X0052940Y0191332D02*
X0064581Y0191332D01*
X0065579Y0190333D02*
X0054675Y0190333D01*
X0055447Y0189335D02*
X0066578Y0189335D01*
X0067576Y0188336D02*
X0055861Y0188336D01*
X0055878Y0187338D02*
X0068575Y0187338D01*
X0069573Y0186339D02*
X0055707Y0186339D01*
X0055293Y0185341D02*
X0070572Y0185341D01*
X0071570Y0184342D02*
X0054303Y0184342D01*
X0052000Y0187524D02*
X0030500Y0187524D01*
X0025500Y0182524D01*
X0015000Y0182524D01*
X0017453Y0177352D02*
X0026718Y0177352D01*
X0027716Y0178351D02*
X0018464Y0178351D01*
X0019463Y0179349D02*
X0028715Y0179349D01*
X0029713Y0180348D02*
X0026436Y0180348D01*
X0027434Y0181346D02*
X0030712Y0181346D01*
X0031710Y0182345D02*
X0028433Y0182345D01*
X0029431Y0183343D02*
X0035336Y0183343D01*
X0036378Y0184342D02*
X0030430Y0184342D01*
X0027203Y0187338D02*
X0017489Y0187338D01*
X0018449Y0188336D02*
X0028201Y0188336D01*
X0029200Y0189335D02*
X0019448Y0189335D01*
X0019938Y0190333D02*
X0049325Y0190333D01*
X0049697Y0184342D02*
X0040622Y0184342D01*
X0041664Y0183343D02*
X0072569Y0183343D01*
X0073567Y0182345D02*
X0042150Y0182345D01*
X0042378Y0181346D02*
X0074566Y0181346D01*
X0075564Y0180348D02*
X0042378Y0180348D01*
X0042004Y0179349D02*
X0076563Y0179349D01*
X0077561Y0178351D02*
X0041312Y0178351D01*
X0039771Y0177352D02*
X0077800Y0177352D01*
X0077800Y0176354D02*
X0031942Y0176354D01*
X0032940Y0177352D02*
X0037229Y0177352D01*
X0038000Y0180524D02*
X0038500Y0181024D01*
X0038000Y0180524D02*
X0033000Y0180524D01*
X0025000Y0172524D01*
X0015000Y0172524D01*
X0018806Y0176354D02*
X0025719Y0176354D01*
X0024721Y0175355D02*
X0019672Y0175355D01*
X0019477Y0169364D02*
X0029729Y0169364D01*
X0028731Y0168366D02*
X0018479Y0168366D01*
X0017417Y0167367D02*
X0027732Y0167367D01*
X0026734Y0166369D02*
X0018792Y0166369D01*
X0019666Y0165370D02*
X0025735Y0165370D01*
X0025950Y0170363D02*
X0030728Y0170363D01*
X0031726Y0171361D02*
X0026949Y0171361D01*
X0027948Y0172360D02*
X0032725Y0172360D01*
X0033723Y0173358D02*
X0028946Y0173358D01*
X0029945Y0174357D02*
X0034722Y0174357D01*
X0030943Y0175355D02*
X0077800Y0175355D01*
X0077800Y0174357D02*
X0069278Y0174357D01*
X0070277Y0173358D02*
X0077800Y0173358D01*
X0077800Y0172360D02*
X0071275Y0172360D01*
X0072274Y0171361D02*
X0077800Y0171361D01*
X0077800Y0170363D02*
X0073272Y0170363D01*
X0074200Y0169364D02*
X0077800Y0169364D01*
X0077800Y0168366D02*
X0074200Y0168366D01*
X0074200Y0167367D02*
X0077800Y0167367D01*
X0077800Y0166369D02*
X0074200Y0166369D01*
X0074200Y0165370D02*
X0077800Y0165370D01*
X0077800Y0164372D02*
X0074200Y0164372D01*
X0074200Y0163373D02*
X0077800Y0163373D01*
X0077800Y0162375D02*
X0074200Y0162375D01*
X0074200Y0161376D02*
X0077800Y0161376D01*
X0077800Y0160378D02*
X0074200Y0160378D01*
X0069800Y0160378D02*
X0066900Y0160378D01*
X0066900Y0161376D02*
X0069800Y0161376D01*
X0069800Y0162375D02*
X0066900Y0162375D01*
X0066900Y0163373D02*
X0069800Y0163373D01*
X0069800Y0164372D02*
X0066900Y0164372D01*
X0066290Y0165370D02*
X0069800Y0165370D01*
X0069800Y0166369D02*
X0065292Y0166369D01*
X0064293Y0167367D02*
X0069800Y0167367D01*
X0069047Y0168366D02*
X0034953Y0168366D01*
X0033955Y0167367D02*
X0048990Y0167367D01*
X0047991Y0166369D02*
X0032956Y0166369D01*
X0031958Y0165370D02*
X0046993Y0165370D01*
X0046300Y0164372D02*
X0030959Y0164372D01*
X0029961Y0163373D02*
X0046300Y0163373D01*
X0046300Y0161376D02*
X0027964Y0161376D01*
X0026965Y0160378D02*
X0046300Y0160378D01*
X0047290Y0159379D02*
X0019492Y0159379D01*
X0018494Y0158381D02*
X0048289Y0158381D01*
X0048722Y0157382D02*
X0017381Y0157382D01*
X0018777Y0156384D02*
X0047723Y0156384D01*
X0046725Y0155385D02*
X0019660Y0155385D01*
X0020073Y0154387D02*
X0046100Y0154387D01*
X0046100Y0153388D02*
X0025747Y0153388D01*
X0026745Y0152390D02*
X0046100Y0152390D01*
X0046100Y0151391D02*
X0027744Y0151391D01*
X0028742Y0150393D02*
X0046100Y0150393D01*
X0046993Y0149394D02*
X0029741Y0149394D01*
X0030739Y0148396D02*
X0047991Y0148396D01*
X0048737Y0147397D02*
X0031738Y0147397D01*
X0032736Y0146399D02*
X0047738Y0146399D01*
X0046740Y0145400D02*
X0033735Y0145400D01*
X0034200Y0144402D02*
X0046100Y0144402D01*
X0046100Y0143403D02*
X0034200Y0143403D01*
X0034200Y0142405D02*
X0046100Y0142405D01*
X0046100Y0141406D02*
X0034200Y0141406D01*
X0034200Y0140408D02*
X0046100Y0140408D01*
X0046978Y0139409D02*
X0034200Y0139409D01*
X0035097Y0138410D02*
X0047976Y0138410D01*
X0048752Y0137412D02*
X0035622Y0137412D01*
X0035878Y0136413D02*
X0047753Y0136413D01*
X0046755Y0135415D02*
X0035878Y0135415D01*
X0035532Y0134416D02*
X0046100Y0134416D01*
X0046100Y0133418D02*
X0034879Y0133418D01*
X0033432Y0132419D02*
X0046100Y0132419D01*
X0046100Y0131421D02*
X0020090Y0131421D01*
X0019765Y0130422D02*
X0046100Y0130422D01*
X0046963Y0129424D02*
X0019175Y0129424D01*
X0018206Y0128425D02*
X0047962Y0128425D01*
X0048960Y0127427D02*
X0017273Y0127427D01*
X0018732Y0126428D02*
X0091300Y0126428D01*
X0091300Y0125430D02*
X0019641Y0125430D01*
X0020055Y0124431D02*
X0091300Y0124431D01*
X0091300Y0123433D02*
X0020400Y0123433D01*
X0020400Y0122434D02*
X0091300Y0122434D01*
X0091300Y0121436D02*
X0020394Y0121436D01*
X0019981Y0120437D02*
X0091300Y0120437D01*
X0091300Y0119439D02*
X0019552Y0119439D01*
X0018553Y0118440D02*
X0091300Y0118440D01*
X0091300Y0117442D02*
X0017237Y0117442D01*
X0018717Y0116443D02*
X0091300Y0116443D01*
X0091300Y0115445D02*
X0019635Y0115445D01*
X0020049Y0114446D02*
X0091300Y0114446D01*
X0091300Y0113448D02*
X0020400Y0113448D01*
X0020400Y0112449D02*
X0091300Y0112449D01*
X0091300Y0111451D02*
X0020400Y0111451D01*
X0019987Y0110452D02*
X0091300Y0110452D01*
X0091300Y0109454D02*
X0019567Y0109454D01*
X0018568Y0108455D02*
X0091300Y0108455D01*
X0091300Y0107457D02*
X0017202Y0107457D01*
X0018702Y0106458D02*
X0091300Y0106458D01*
X0091300Y0105460D02*
X0019629Y0105460D01*
X0020042Y0104461D02*
X0091951Y0104461D01*
X0092950Y0103463D02*
X0020400Y0103463D01*
X0020400Y0102464D02*
X0093948Y0102464D01*
X0094947Y0101466D02*
X0020400Y0101466D01*
X0019993Y0100467D02*
X0095945Y0100467D01*
X0096944Y0099469D02*
X0019579Y0099469D01*
X0018583Y0098470D02*
X0113372Y0098470D01*
X0114946Y0097472D02*
X0016914Y0097472D01*
X0013086Y0097472D02*
X0006714Y0097472D01*
X0006714Y0098470D02*
X0011417Y0098470D01*
X0010421Y0099469D02*
X0006714Y0099469D01*
X0006714Y0100467D02*
X0010007Y0100467D01*
X0009600Y0101466D02*
X0006714Y0101466D01*
X0006714Y0102464D02*
X0009600Y0102464D01*
X0009600Y0103463D02*
X0006714Y0103463D01*
X0006714Y0104461D02*
X0009958Y0104461D01*
X0010371Y0105460D02*
X0006714Y0105460D01*
X0006714Y0106458D02*
X0011298Y0106458D01*
X0012798Y0107457D02*
X0006714Y0107457D01*
X0006714Y0108455D02*
X0011432Y0108455D01*
X0010433Y0109454D02*
X0006714Y0109454D01*
X0006714Y0110452D02*
X0010013Y0110452D01*
X0009600Y0111451D02*
X0006714Y0111451D01*
X0006714Y0112449D02*
X0009600Y0112449D01*
X0009600Y0113448D02*
X0006714Y0113448D01*
X0006714Y0114446D02*
X0009951Y0114446D01*
X0010365Y0115445D02*
X0006714Y0115445D01*
X0006714Y0116443D02*
X0011283Y0116443D01*
X0012763Y0117442D02*
X0006714Y0117442D01*
X0006714Y0118440D02*
X0011447Y0118440D01*
X0010448Y0119439D02*
X0006714Y0119439D01*
X0006714Y0120437D02*
X0010019Y0120437D01*
X0009606Y0121436D02*
X0006714Y0121436D01*
X0006714Y0122434D02*
X0009600Y0122434D01*
X0009600Y0123433D02*
X0006714Y0123433D01*
X0006714Y0124431D02*
X0009945Y0124431D01*
X0010359Y0125430D02*
X0006714Y0125430D01*
X0006714Y0126428D02*
X0011268Y0126428D01*
X0012727Y0127427D02*
X0006714Y0127427D01*
X0006714Y0128425D02*
X0011794Y0128425D01*
X0010825Y0129424D02*
X0006714Y0129424D01*
X0006714Y0130422D02*
X0010235Y0130422D01*
X0009910Y0131421D02*
X0006714Y0131421D01*
X0006714Y0132419D02*
X0014500Y0132419D01*
X0015500Y0132419D02*
X0030568Y0132419D01*
X0029121Y0133418D02*
X0020123Y0133418D01*
X0019853Y0134416D02*
X0028468Y0134416D01*
X0028122Y0135415D02*
X0019327Y0135415D01*
X0018464Y0136413D02*
X0028122Y0136413D01*
X0028378Y0137412D02*
X0016783Y0137412D01*
X0018524Y0138410D02*
X0028903Y0138410D01*
X0029800Y0139409D02*
X0019522Y0139409D01*
X0019968Y0140408D02*
X0029800Y0140408D01*
X0029800Y0141406D02*
X0020382Y0141406D01*
X0020400Y0142405D02*
X0029800Y0142405D01*
X0029509Y0143403D02*
X0020400Y0143403D01*
X0020067Y0144402D02*
X0028511Y0144402D01*
X0027512Y0145400D02*
X0019653Y0145400D01*
X0018762Y0146399D02*
X0026514Y0146399D01*
X0025515Y0147397D02*
X0017345Y0147397D01*
X0018509Y0148396D02*
X0024517Y0148396D01*
X0023518Y0149394D02*
X0019507Y0149394D01*
X0015500Y0152024D02*
X0015000Y0152524D01*
X0015500Y0152024D02*
X0024000Y0152024D01*
X0032000Y0144024D01*
X0032000Y0136024D01*
X0013217Y0137412D02*
X0006714Y0137412D01*
X0006714Y0138410D02*
X0011476Y0138410D01*
X0010478Y0139409D02*
X0006714Y0139409D01*
X0006714Y0140408D02*
X0010032Y0140408D01*
X0009618Y0141406D02*
X0006714Y0141406D01*
X0006714Y0142405D02*
X0009600Y0142405D01*
X0009600Y0143403D02*
X0006714Y0143403D01*
X0006714Y0144402D02*
X0009933Y0144402D01*
X0010347Y0145400D02*
X0006714Y0145400D01*
X0006714Y0146399D02*
X0011238Y0146399D01*
X0012655Y0147397D02*
X0006714Y0147397D01*
X0006714Y0148396D02*
X0011491Y0148396D01*
X0010493Y0149394D02*
X0006714Y0149394D01*
X0006714Y0150393D02*
X0010038Y0150393D01*
X0009624Y0151391D02*
X0006714Y0151391D01*
X0006714Y0152390D02*
X0009600Y0152390D01*
X0009600Y0153388D02*
X0006714Y0153388D01*
X0006714Y0154387D02*
X0009927Y0154387D01*
X0010340Y0155385D02*
X0006714Y0155385D01*
X0006714Y0156384D02*
X0011223Y0156384D01*
X0012619Y0157382D02*
X0006714Y0157382D01*
X0006714Y0158381D02*
X0011506Y0158381D01*
X0010508Y0159379D02*
X0006714Y0159379D01*
X0006714Y0160378D02*
X0010044Y0160378D01*
X0009630Y0161376D02*
X0006714Y0161376D01*
X0006714Y0162375D02*
X0009600Y0162375D01*
X0009600Y0163373D02*
X0006714Y0163373D01*
X0006714Y0164372D02*
X0009921Y0164372D01*
X0010334Y0165370D02*
X0006714Y0165370D01*
X0019678Y0185341D02*
X0025206Y0185341D01*
X0026204Y0186339D02*
X0018821Y0186339D01*
X0035952Y0169364D02*
X0068048Y0169364D01*
X0069800Y0159379D02*
X0065992Y0159379D01*
X0064994Y0158381D02*
X0069800Y0158381D01*
X0069800Y0157382D02*
X0064278Y0157382D01*
X0065277Y0156384D02*
X0069800Y0156384D01*
X0069800Y0155385D02*
X0066275Y0155385D01*
X0066900Y0154387D02*
X0069800Y0154387D01*
X0069800Y0153388D02*
X0066900Y0153388D01*
X0066900Y0152390D02*
X0069800Y0152390D01*
X0068000Y0142524D02*
X0061500Y0142524D01*
X0066900Y0132419D02*
X0091300Y0132419D01*
X0091300Y0131421D02*
X0066900Y0131421D01*
X0066900Y0130422D02*
X0091300Y0130422D01*
X0091300Y0129424D02*
X0066037Y0129424D01*
X0065038Y0128425D02*
X0091300Y0128425D01*
X0091300Y0127427D02*
X0064040Y0127427D01*
X0058960Y0127427D02*
X0054040Y0127427D01*
X0055038Y0128425D02*
X0057962Y0128425D01*
X0056963Y0129424D02*
X0056037Y0129424D01*
X0051000Y0162375D02*
X0028962Y0162375D01*
X0011536Y0136413D02*
X0006714Y0136413D01*
X0006714Y0135415D02*
X0010673Y0135415D01*
X0010147Y0134416D02*
X0006714Y0134416D01*
X0006714Y0133418D02*
X0009877Y0133418D01*
X0006714Y0096473D02*
X0131100Y0096473D01*
X0131100Y0095474D02*
X0123298Y0095474D01*
X0124729Y0094476D02*
X0131100Y0094476D01*
X0131100Y0097472D02*
X0123054Y0097472D01*
X0124628Y0098470D02*
X0131100Y0098470D01*
X0131100Y0099469D02*
X0125403Y0099469D01*
X0125817Y0100467D02*
X0131100Y0100467D01*
X0131100Y0101466D02*
X0125900Y0101466D01*
X0125865Y0102464D02*
X0131100Y0102464D01*
X0131100Y0103463D02*
X0125451Y0103463D01*
X0124744Y0104461D02*
X0131100Y0104461D01*
X0131100Y0105460D02*
X0123334Y0105460D01*
X0122455Y0107224D02*
X0124036Y0107878D01*
X0125245Y0109088D01*
X0125900Y0110668D01*
X0125900Y0112379D01*
X0125245Y0113959D01*
X0124036Y0115169D01*
X0122455Y0115824D01*
X0115545Y0115824D01*
X0115303Y0115724D01*
X0113740Y0115724D01*
X0107900Y0121563D01*
X0107900Y0122098D01*
X0107078Y0124082D01*
X0105559Y0125602D01*
X0104540Y0126024D01*
X0105559Y0126446D01*
X0107078Y0127965D01*
X0107900Y0129949D01*
X0107900Y0130484D01*
X0114740Y0137324D01*
X0115303Y0137324D01*
X0115545Y0137224D01*
X0122455Y0137224D01*
X0124036Y0137878D01*
X0125245Y0139088D01*
X0125900Y0140668D01*
X0125900Y0142379D01*
X0125245Y0143959D01*
X0124036Y0145169D01*
X0122455Y0145824D01*
X0115545Y0145824D01*
X0115303Y0145724D01*
X0112165Y0145724D01*
X0110621Y0145084D01*
X0101960Y0136424D01*
X0101426Y0136424D01*
X0099441Y0135602D01*
X0097922Y0134082D01*
X0097100Y0132098D01*
X0097100Y0129949D01*
X0097922Y0127965D01*
X0099441Y0126446D01*
X0100460Y0126024D01*
X0099441Y0125602D01*
X0097922Y0124082D01*
X0097100Y0122098D01*
X0097100Y0119949D01*
X0097922Y0117965D01*
X0099441Y0116446D01*
X0101426Y0115624D01*
X0101960Y0115624D01*
X0109621Y0107963D01*
X0111165Y0107324D01*
X0115303Y0107324D01*
X0115545Y0107224D01*
X0122455Y0107224D01*
X0123018Y0107457D02*
X0131100Y0107457D01*
X0131100Y0108455D02*
X0124613Y0108455D01*
X0125397Y0109454D02*
X0131100Y0109454D01*
X0131100Y0110452D02*
X0125810Y0110452D01*
X0125900Y0111451D02*
X0131100Y0111451D01*
X0131100Y0112449D02*
X0125871Y0112449D01*
X0125457Y0113448D02*
X0131100Y0113448D01*
X0131100Y0114446D02*
X0124759Y0114446D01*
X0123370Y0115445D02*
X0131100Y0115445D01*
X0131100Y0116443D02*
X0113020Y0116443D01*
X0112022Y0117442D02*
X0115963Y0117442D01*
X0116077Y0117424D02*
X0118700Y0117424D01*
X0118700Y0121224D01*
X0112300Y0121224D01*
X0112300Y0121201D01*
X0112401Y0120564D01*
X0112600Y0119950D01*
X0112893Y0119375D01*
X0113273Y0118853D01*
X0113729Y0118396D01*
X0114251Y0118017D01*
X0114826Y0117724D01*
X0115440Y0117525D01*
X0116077Y0117424D01*
X0113685Y0118440D02*
X0111023Y0118440D01*
X0110025Y0119439D02*
X0112861Y0119439D01*
X0112442Y0120437D02*
X0109026Y0120437D01*
X0108028Y0121436D02*
X0118700Y0121436D01*
X0118700Y0121224D02*
X0118700Y0121824D01*
X0118700Y0125624D01*
X0116077Y0125624D01*
X0115440Y0125523D01*
X0114826Y0125323D01*
X0114251Y0125030D01*
X0113729Y0124651D01*
X0113273Y0124195D01*
X0112893Y0123672D01*
X0112600Y0123097D01*
X0112401Y0122484D01*
X0112300Y0121846D01*
X0112300Y0121824D01*
X0118700Y0121824D01*
X0119300Y0121824D01*
X0119300Y0125624D01*
X0121923Y0125624D01*
X0122560Y0125523D01*
X0123174Y0125323D01*
X0123749Y0125030D01*
X0124271Y0124651D01*
X0124727Y0124195D01*
X0125107Y0123672D01*
X0125400Y0123097D01*
X0125599Y0122484D01*
X0125700Y0121846D01*
X0125700Y0121824D01*
X0119300Y0121824D01*
X0119300Y0121224D01*
X0125700Y0121224D01*
X0125700Y0121201D01*
X0125599Y0120564D01*
X0125400Y0119950D01*
X0125107Y0119375D01*
X0124727Y0118853D01*
X0124271Y0118396D01*
X0123749Y0118017D01*
X0123174Y0117724D01*
X0122560Y0117525D01*
X0121923Y0117424D01*
X0119300Y0117424D01*
X0119300Y0121224D01*
X0118700Y0121224D01*
X0119300Y0121436D02*
X0131100Y0121436D01*
X0131100Y0122434D02*
X0125607Y0122434D01*
X0125229Y0123433D02*
X0131100Y0123433D01*
X0131100Y0124431D02*
X0124491Y0124431D01*
X0122846Y0125430D02*
X0131100Y0125430D01*
X0131100Y0126428D02*
X0105517Y0126428D01*
X0105731Y0125430D02*
X0115154Y0125430D01*
X0113509Y0124431D02*
X0106729Y0124431D01*
X0107347Y0123433D02*
X0112771Y0123433D01*
X0112393Y0122434D02*
X0107761Y0122434D01*
X0106540Y0127427D02*
X0116057Y0127427D01*
X0116077Y0127424D02*
X0118700Y0127424D01*
X0118700Y0131224D01*
X0112300Y0131224D01*
X0112300Y0131201D01*
X0112401Y0130564D01*
X0112600Y0129950D01*
X0112893Y0129375D01*
X0113273Y0128853D01*
X0113729Y0128396D01*
X0114251Y0128017D01*
X0114826Y0127724D01*
X0115440Y0127525D01*
X0116077Y0127424D01*
X0113700Y0128425D02*
X0107269Y0128425D01*
X0107682Y0129424D02*
X0112868Y0129424D01*
X0112447Y0130422D02*
X0107900Y0130422D01*
X0108837Y0131421D02*
X0118700Y0131421D01*
X0118700Y0131224D02*
X0118700Y0131824D01*
X0118700Y0135624D01*
X0116077Y0135624D01*
X0115440Y0135523D01*
X0114826Y0135323D01*
X0114251Y0135030D01*
X0113729Y0134651D01*
X0113273Y0134195D01*
X0112893Y0133672D01*
X0112600Y0133097D01*
X0112401Y0132484D01*
X0112300Y0131846D01*
X0112300Y0131824D01*
X0118700Y0131824D01*
X0119300Y0131824D01*
X0119300Y0135624D01*
X0121923Y0135624D01*
X0122560Y0135523D01*
X0123174Y0135323D01*
X0123749Y0135030D01*
X0124271Y0134651D01*
X0124727Y0134195D01*
X0125107Y0133672D01*
X0125400Y0133097D01*
X0125599Y0132484D01*
X0125700Y0131846D01*
X0125700Y0131824D01*
X0119300Y0131824D01*
X0119300Y0131224D01*
X0125700Y0131224D01*
X0125700Y0131201D01*
X0125599Y0130564D01*
X0125400Y0129950D01*
X0125107Y0129375D01*
X0124727Y0128853D01*
X0124271Y0128396D01*
X0123749Y0128017D01*
X0123174Y0127724D01*
X0122560Y0127525D01*
X0121923Y0127424D01*
X0119300Y0127424D01*
X0119300Y0131224D01*
X0118700Y0131224D01*
X0119300Y0131421D02*
X0131100Y0131421D01*
X0131100Y0132419D02*
X0125609Y0132419D01*
X0125236Y0133418D02*
X0131100Y0133418D01*
X0131100Y0134416D02*
X0124505Y0134416D01*
X0122892Y0135415D02*
X0131100Y0135415D01*
X0131100Y0136413D02*
X0113830Y0136413D01*
X0112831Y0135415D02*
X0115108Y0135415D01*
X0113495Y0134416D02*
X0111832Y0134416D01*
X0112764Y0133418D02*
X0110834Y0133418D01*
X0109835Y0132419D02*
X0112391Y0132419D01*
X0118700Y0132419D02*
X0119300Y0132419D01*
X0119300Y0133418D02*
X0118700Y0133418D01*
X0118700Y0134416D02*
X0119300Y0134416D01*
X0119300Y0135415D02*
X0118700Y0135415D01*
X0122910Y0137412D02*
X0131100Y0137412D01*
X0131100Y0138410D02*
X0124568Y0138410D01*
X0125378Y0139409D02*
X0131100Y0139409D01*
X0131100Y0140408D02*
X0125792Y0140408D01*
X0125900Y0141406D02*
X0131100Y0141406D01*
X0131100Y0142405D02*
X0125889Y0142405D01*
X0125476Y0143403D02*
X0131100Y0143403D01*
X0131100Y0144402D02*
X0124803Y0144402D01*
X0123478Y0145400D02*
X0131100Y0145400D01*
X0131100Y0146399D02*
X0095700Y0146399D01*
X0095700Y0147397D02*
X0115126Y0147397D01*
X0115545Y0147224D02*
X0113964Y0147878D01*
X0112755Y0149088D01*
X0112100Y0150668D01*
X0112100Y0150912D01*
X0107300Y0155712D01*
X0107300Y0172843D01*
X0106815Y0172843D01*
X0105819Y0173838D01*
X0105819Y0179209D01*
X0106815Y0180205D01*
X0112185Y0180205D01*
X0113181Y0179209D01*
X0113181Y0173838D01*
X0112185Y0172843D01*
X0111700Y0172843D01*
X0111700Y0157535D01*
X0114036Y0155199D01*
X0115545Y0155824D01*
X0122455Y0155824D01*
X0124036Y0155169D01*
X0125245Y0153959D01*
X0125900Y0152379D01*
X0125900Y0150668D01*
X0125245Y0149088D01*
X0124036Y0147878D01*
X0122455Y0147224D01*
X0115545Y0147224D01*
X0113447Y0148396D02*
X0095700Y0148396D01*
X0095700Y0149394D02*
X0112628Y0149394D01*
X0112214Y0150393D02*
X0095700Y0150393D01*
X0095700Y0151391D02*
X0111621Y0151391D01*
X0110623Y0152390D02*
X0095700Y0152390D01*
X0095700Y0153388D02*
X0109624Y0153388D01*
X0108626Y0154387D02*
X0095700Y0154387D01*
X0095700Y0155385D02*
X0107627Y0155385D01*
X0107300Y0156384D02*
X0095700Y0156384D01*
X0095700Y0157382D02*
X0107300Y0157382D01*
X0107300Y0158381D02*
X0095700Y0158381D01*
X0095700Y0159379D02*
X0107300Y0159379D01*
X0107300Y0160378D02*
X0095700Y0160378D01*
X0095700Y0161376D02*
X0107300Y0161376D01*
X0107300Y0162375D02*
X0095700Y0162375D01*
X0095700Y0163373D02*
X0107300Y0163373D01*
X0107300Y0164372D02*
X0095700Y0164372D01*
X0095700Y0165370D02*
X0107300Y0165370D01*
X0107300Y0166369D02*
X0095700Y0166369D01*
X0095700Y0167367D02*
X0107300Y0167367D01*
X0107300Y0168366D02*
X0095700Y0168366D01*
X0095700Y0169364D02*
X0107300Y0169364D01*
X0107300Y0170363D02*
X0095700Y0170363D01*
X0095700Y0171361D02*
X0107300Y0171361D01*
X0107300Y0172360D02*
X0095700Y0172360D01*
X0095700Y0173358D02*
X0106299Y0173358D01*
X0105819Y0174357D02*
X0095700Y0174357D01*
X0095700Y0175355D02*
X0105819Y0175355D01*
X0105819Y0176354D02*
X0095700Y0176354D01*
X0096195Y0177352D02*
X0105819Y0177352D01*
X0105819Y0178351D02*
X0104008Y0178351D01*
X0105007Y0179349D02*
X0105959Y0179349D01*
X0106005Y0180348D02*
X0130100Y0180348D01*
X0130100Y0181346D02*
X0121252Y0181346D01*
X0123002Y0182345D02*
X0130100Y0182345D01*
X0130100Y0179349D02*
X0113041Y0179349D01*
X0113181Y0178351D02*
X0130100Y0178351D01*
X0130100Y0177352D02*
X0113181Y0177352D01*
X0113181Y0176354D02*
X0130100Y0176354D01*
X0130100Y0175355D02*
X0113181Y0175355D01*
X0113181Y0174357D02*
X0130100Y0174357D01*
X0130100Y0173358D02*
X0112701Y0173358D01*
X0111700Y0172360D02*
X0129735Y0172360D01*
X0128737Y0171361D02*
X0111700Y0171361D01*
X0111700Y0170363D02*
X0127738Y0170363D01*
X0126739Y0169364D02*
X0111700Y0169364D01*
X0111700Y0168366D02*
X0125741Y0168366D01*
X0124742Y0167367D02*
X0111700Y0167367D01*
X0111700Y0166369D02*
X0123744Y0166369D01*
X0129252Y0163373D02*
X0134319Y0163373D01*
X0134319Y0162375D02*
X0130250Y0162375D01*
X0129458Y0163166D02*
X0129458Y0163166D01*
X0129949Y0164372D02*
X0134319Y0164372D01*
X0134319Y0165370D02*
X0130948Y0165370D01*
X0131946Y0166369D02*
X0134479Y0166369D01*
X0135800Y0167367D02*
X0132945Y0167367D01*
X0133943Y0168366D02*
X0135800Y0168366D01*
X0135800Y0169364D02*
X0134942Y0169364D01*
X0135658Y0170363D02*
X0135800Y0170363D01*
X0140200Y0170363D02*
X0160800Y0170363D01*
X0160800Y0171361D02*
X0140200Y0171361D01*
X0140200Y0172360D02*
X0160800Y0172360D01*
X0160800Y0173358D02*
X0140200Y0173358D01*
X0140200Y0174357D02*
X0160800Y0174357D01*
X0160800Y0175355D02*
X0142198Y0175355D01*
X0142681Y0176354D02*
X0160800Y0176354D01*
X0160800Y0177352D02*
X0142681Y0177352D01*
X0142681Y0178351D02*
X0160800Y0178351D01*
X0160800Y0179349D02*
X0142681Y0179349D01*
X0142681Y0180348D02*
X0160800Y0180348D01*
X0160800Y0181346D02*
X0151252Y0181346D01*
X0153002Y0182345D02*
X0160800Y0182345D01*
X0160800Y0183343D02*
X0153851Y0183343D01*
X0154265Y0184342D02*
X0160800Y0184342D01*
X0160800Y0185341D02*
X0154400Y0185341D01*
X0154400Y0186339D02*
X0160800Y0186339D01*
X0160800Y0187338D02*
X0154003Y0187338D01*
X0153369Y0188336D02*
X0160800Y0188336D01*
X0160800Y0189335D02*
X0152136Y0189335D01*
X0151216Y0191332D02*
X0160800Y0191332D01*
X0160800Y0192330D02*
X0152988Y0192330D01*
X0152536Y0191878D02*
X0153745Y0193088D01*
X0154400Y0194668D01*
X0154400Y0196379D01*
X0153745Y0197959D01*
X0152536Y0199169D01*
X0150955Y0199824D01*
X0144045Y0199824D01*
X0142464Y0199169D01*
X0141255Y0197959D01*
X0140600Y0196379D01*
X0140600Y0194668D01*
X0141255Y0193088D01*
X0142464Y0191878D01*
X0144045Y0191224D01*
X0150955Y0191224D01*
X0152536Y0191878D01*
X0153845Y0193329D02*
X0160800Y0193329D01*
X0160800Y0194327D02*
X0154259Y0194327D01*
X0154400Y0195326D02*
X0160800Y0195326D01*
X0160800Y0196324D02*
X0154400Y0196324D01*
X0154009Y0197323D02*
X0160800Y0197323D01*
X0160800Y0198321D02*
X0153384Y0198321D01*
X0152172Y0199320D02*
X0161198Y0199320D01*
X0161855Y0200318D02*
X0135400Y0200318D01*
X0135400Y0199320D02*
X0142828Y0199320D01*
X0141616Y0198321D02*
X0135400Y0198321D01*
X0135400Y0197323D02*
X0140991Y0197323D01*
X0140600Y0196324D02*
X0135400Y0196324D01*
X0135400Y0195326D02*
X0140600Y0195326D01*
X0140741Y0194327D02*
X0135400Y0194327D01*
X0135400Y0193329D02*
X0141155Y0193329D01*
X0142012Y0192330D02*
X0135400Y0192330D01*
X0135400Y0191332D02*
X0143784Y0191332D01*
X0142864Y0189335D02*
X0135400Y0189335D01*
X0135400Y0190333D02*
X0160800Y0190333D01*
X0169200Y0190333D02*
X0169796Y0190333D01*
X0169622Y0191332D02*
X0169200Y0191332D01*
X0169200Y0192330D02*
X0169637Y0192330D01*
X0170050Y0193329D02*
X0169200Y0193329D01*
X0169200Y0194327D02*
X0170819Y0194327D01*
X0169200Y0195326D02*
X0172545Y0195326D01*
X0174455Y0195326D02*
X0200284Y0195326D01*
X0199925Y0196324D02*
X0169740Y0196324D01*
X0170739Y0197323D02*
X0204500Y0197323D01*
X0204500Y0196324D02*
X0205500Y0196324D01*
X0205500Y0195326D02*
X0204500Y0195326D01*
X0204500Y0194327D02*
X0205500Y0194327D01*
X0205500Y0193329D02*
X0204500Y0193329D01*
X0204500Y0192330D02*
X0205500Y0192330D01*
X0205500Y0191332D02*
X0204500Y0191332D01*
X0204500Y0190333D02*
X0205500Y0190333D01*
X0205500Y0189335D02*
X0204500Y0189335D01*
X0204500Y0188336D02*
X0205500Y0188336D01*
X0205500Y0187338D02*
X0213050Y0187338D01*
X0213050Y0188336D02*
X0210136Y0188336D01*
X0209879Y0189335D02*
X0213050Y0189335D01*
X0213050Y0190333D02*
X0209386Y0190333D01*
X0208546Y0191332D02*
X0213050Y0191332D01*
X0213050Y0192330D02*
X0207021Y0192330D01*
X0208073Y0193329D02*
X0213050Y0193329D01*
X0213050Y0194327D02*
X0209105Y0194327D01*
X0209716Y0195326D02*
X0213050Y0195326D01*
X0213050Y0196324D02*
X0210075Y0196324D01*
X0210138Y0198321D02*
X0213050Y0198321D01*
X0213050Y0197323D02*
X0205500Y0197323D01*
X0209397Y0200318D02*
X0213050Y0200318D01*
X0213050Y0199320D02*
X0209884Y0199320D01*
X0208561Y0201317D02*
X0213050Y0201317D01*
X0213050Y0202315D02*
X0207050Y0202315D01*
X0208427Y0203314D02*
X0213050Y0203314D01*
X0213050Y0204312D02*
X0209425Y0204312D01*
X0209928Y0205311D02*
X0213050Y0205311D01*
X0213050Y0206309D02*
X0210342Y0206309D01*
X0210400Y0207308D02*
X0213050Y0207308D01*
X0213050Y0208306D02*
X0210400Y0208306D01*
X0210107Y0209305D02*
X0213050Y0209305D01*
X0213050Y0210303D02*
X0209694Y0210303D01*
X0208859Y0211302D02*
X0213050Y0211302D01*
X0213050Y0212300D02*
X0207579Y0212300D01*
X0202421Y0212300D02*
X0189200Y0212300D01*
X0189200Y0213299D02*
X0213050Y0213299D01*
X0213050Y0214297D02*
X0189200Y0214297D01*
X0189200Y0215296D02*
X0213050Y0215296D01*
X0213050Y0216294D02*
X0189200Y0216294D01*
X0189200Y0217293D02*
X0213050Y0217293D01*
X0213050Y0218291D02*
X0189200Y0218291D01*
X0189200Y0219290D02*
X0213050Y0219290D01*
X0213050Y0220288D02*
X0189200Y0220288D01*
X0189200Y0221287D02*
X0213050Y0221287D01*
X0213050Y0222285D02*
X0206465Y0222285D01*
X0208397Y0223284D02*
X0213050Y0223284D01*
X0213050Y0224282D02*
X0209396Y0224282D01*
X0209916Y0225281D02*
X0213050Y0225281D01*
X0213050Y0226279D02*
X0210330Y0226279D01*
X0210400Y0227278D02*
X0213050Y0227278D01*
X0213050Y0228277D02*
X0210400Y0228277D01*
X0210119Y0229275D02*
X0213050Y0229275D01*
X0213050Y0230274D02*
X0209706Y0230274D01*
X0208888Y0231272D02*
X0213050Y0231272D01*
X0213050Y0232271D02*
X0207651Y0232271D01*
X0208382Y0233269D02*
X0213050Y0233269D01*
X0213050Y0234268D02*
X0209381Y0234268D01*
X0209910Y0235266D02*
X0213050Y0235266D01*
X0213050Y0236265D02*
X0210323Y0236265D01*
X0210400Y0237263D02*
X0213050Y0237263D01*
X0213050Y0238262D02*
X0210400Y0238262D01*
X0210126Y0239260D02*
X0213050Y0239260D01*
X0213050Y0240259D02*
X0209712Y0240259D01*
X0208903Y0241257D02*
X0213050Y0241257D01*
X0213050Y0242256D02*
X0207687Y0242256D01*
X0208367Y0243254D02*
X0213050Y0243254D01*
X0213050Y0244253D02*
X0209366Y0244253D01*
X0209904Y0245251D02*
X0213050Y0245251D01*
X0213050Y0246250D02*
X0210317Y0246250D01*
X0210400Y0247248D02*
X0213050Y0247248D01*
X0213050Y0248247D02*
X0210400Y0248247D01*
X0210132Y0249245D02*
X0213050Y0249245D01*
X0213050Y0250244D02*
X0209718Y0250244D01*
X0208918Y0251242D02*
X0213050Y0251242D01*
X0213050Y0252241D02*
X0207723Y0252241D01*
X0208352Y0253239D02*
X0213050Y0253239D01*
X0213050Y0254238D02*
X0209351Y0254238D01*
X0209897Y0255236D02*
X0213050Y0255236D01*
X0213050Y0256235D02*
X0210311Y0256235D01*
X0210400Y0257233D02*
X0213050Y0257233D01*
X0213050Y0258232D02*
X0210400Y0258232D01*
X0210138Y0259230D02*
X0213050Y0259230D01*
X0213050Y0260229D02*
X0209724Y0260229D01*
X0208933Y0261227D02*
X0213050Y0261227D01*
X0213050Y0262226D02*
X0207759Y0262226D01*
X0208338Y0263224D02*
X0213050Y0263224D01*
X0213050Y0264223D02*
X0209336Y0264223D01*
X0209891Y0265221D02*
X0213050Y0265221D01*
X0213050Y0266220D02*
X0210305Y0266220D01*
X0210400Y0267218D02*
X0213050Y0267218D01*
X0213050Y0268217D02*
X0210400Y0268217D01*
X0210144Y0269215D02*
X0213050Y0269215D01*
X0213050Y0270214D02*
X0209731Y0270214D01*
X0208948Y0271212D02*
X0213050Y0271212D01*
X0213050Y0272211D02*
X0207795Y0272211D01*
X0208323Y0273210D02*
X0213050Y0273210D01*
X0213050Y0274208D02*
X0209321Y0274208D01*
X0209885Y0275207D02*
X0213050Y0275207D01*
X0213050Y0276205D02*
X0210299Y0276205D01*
X0210400Y0277204D02*
X0213050Y0277204D01*
X0213050Y0278202D02*
X0210400Y0278202D01*
X0210150Y0279201D02*
X0213050Y0279201D01*
X0213050Y0280199D02*
X0209737Y0280199D01*
X0208963Y0281198D02*
X0213050Y0281198D01*
X0213050Y0282196D02*
X0207830Y0282196D01*
X0202170Y0282196D02*
X0017830Y0282196D01*
X0018963Y0281198D02*
X0201037Y0281198D01*
X0200263Y0280199D02*
X0019737Y0280199D01*
X0020150Y0279201D02*
X0199850Y0279201D01*
X0199600Y0278202D02*
X0020400Y0278202D01*
X0020400Y0277204D02*
X0199600Y0277204D01*
X0199701Y0276205D02*
X0020299Y0276205D01*
X0019885Y0275207D02*
X0200115Y0275207D01*
X0200679Y0274208D02*
X0019321Y0274208D01*
X0018323Y0273210D02*
X0201677Y0273210D01*
X0202205Y0272211D02*
X0017795Y0272211D01*
X0018948Y0271212D02*
X0201052Y0271212D01*
X0200269Y0270214D02*
X0019731Y0270214D01*
X0087000Y0222524D02*
X0087000Y0137524D01*
X0095700Y0137412D02*
X0102949Y0137412D01*
X0103947Y0138410D02*
X0095700Y0138410D01*
X0095700Y0139409D02*
X0104946Y0139409D01*
X0105944Y0140408D02*
X0095700Y0140408D01*
X0095700Y0141406D02*
X0106943Y0141406D01*
X0107941Y0142405D02*
X0095700Y0142405D01*
X0095700Y0143403D02*
X0108940Y0143403D01*
X0109938Y0144402D02*
X0095700Y0144402D01*
X0095700Y0145400D02*
X0111383Y0145400D01*
X0114500Y0151624D02*
X0118900Y0151624D01*
X0119000Y0151524D01*
X0114500Y0151624D02*
X0109500Y0156624D01*
X0109500Y0176524D01*
X0106300Y0181346D02*
X0113748Y0181346D01*
X0111998Y0182345D02*
X0106300Y0182345D01*
X0105100Y0185524D02*
X0102000Y0182424D01*
X0098993Y0179349D02*
X0097181Y0179349D01*
X0097181Y0178351D02*
X0099992Y0178351D01*
X0097995Y0180348D02*
X0097181Y0180348D01*
X0097181Y0181346D02*
X0097700Y0181346D01*
X0097700Y0182345D02*
X0097181Y0182345D01*
X0097181Y0183343D02*
X0097700Y0183343D01*
X0097837Y0184342D02*
X0096548Y0184342D01*
X0095700Y0185341D02*
X0098836Y0185341D01*
X0099834Y0186339D02*
X0095700Y0186339D01*
X0096425Y0187338D02*
X0103803Y0187338D01*
X0105100Y0185524D02*
X0117500Y0185524D01*
X0112864Y0189335D02*
X0098422Y0189335D01*
X0099421Y0190333D02*
X0129600Y0190333D01*
X0129600Y0189335D02*
X0122136Y0189335D01*
X0121216Y0191332D02*
X0129600Y0191332D01*
X0129600Y0192330D02*
X0122988Y0192330D01*
X0123845Y0193329D02*
X0129600Y0193329D01*
X0129600Y0194327D02*
X0124259Y0194327D01*
X0124400Y0195326D02*
X0129600Y0195326D01*
X0129600Y0196324D02*
X0124400Y0196324D01*
X0124009Y0197323D02*
X0129600Y0197323D01*
X0129600Y0198321D02*
X0123384Y0198321D01*
X0122172Y0199320D02*
X0129600Y0199320D01*
X0129600Y0200318D02*
X0105693Y0200318D01*
X0106100Y0200725D02*
X0106100Y0202124D01*
X0102300Y0202124D01*
X0102300Y0202724D01*
X0101700Y0202724D01*
X0101700Y0206524D01*
X0100302Y0206524D01*
X0097900Y0204122D01*
X0097900Y0202724D01*
X0101700Y0202724D01*
X0101700Y0202124D01*
X0097900Y0202124D01*
X0097900Y0200725D01*
X0100302Y0198324D01*
X0101700Y0198324D01*
X0101700Y0202124D01*
X0102300Y0202124D01*
X0102300Y0198324D01*
X0103698Y0198324D01*
X0106100Y0200725D01*
X0106100Y0201317D02*
X0113820Y0201317D01*
X0112828Y0199320D02*
X0104694Y0199320D01*
X0102300Y0199320D02*
X0101700Y0199320D01*
X0101700Y0200318D02*
X0102300Y0200318D01*
X0102300Y0201317D02*
X0101700Y0201317D01*
X0101700Y0202315D02*
X0089200Y0202315D01*
X0089200Y0201317D02*
X0097900Y0201317D01*
X0098307Y0200318D02*
X0089200Y0200318D01*
X0089200Y0199320D02*
X0099306Y0199320D01*
X0097900Y0203314D02*
X0089200Y0203314D01*
X0089200Y0204312D02*
X0098090Y0204312D01*
X0099089Y0205311D02*
X0089200Y0205311D01*
X0089200Y0206309D02*
X0100087Y0206309D01*
X0101700Y0206309D02*
X0102300Y0206309D01*
X0102300Y0206524D02*
X0102300Y0202724D01*
X0106100Y0202724D01*
X0106100Y0204122D01*
X0103698Y0206524D01*
X0102300Y0206524D01*
X0102300Y0205311D02*
X0101700Y0205311D01*
X0101700Y0204312D02*
X0102300Y0204312D01*
X0102300Y0203314D02*
X0101700Y0203314D01*
X0102300Y0202315D02*
X0108269Y0202315D01*
X0107270Y0203314D02*
X0106100Y0203314D01*
X0106272Y0204312D02*
X0105910Y0204312D01*
X0105273Y0205311D02*
X0104911Y0205311D01*
X0104275Y0206309D02*
X0103913Y0206309D01*
X0103276Y0207308D02*
X0089200Y0207308D01*
X0089200Y0208306D02*
X0102278Y0208306D01*
X0101279Y0209305D02*
X0089200Y0209305D01*
X0089200Y0210303D02*
X0098785Y0210303D01*
X0097585Y0211302D02*
X0089200Y0211302D01*
X0089200Y0212300D02*
X0096783Y0212300D01*
X0096370Y0213299D02*
X0089200Y0213299D01*
X0089200Y0214297D02*
X0096100Y0214297D01*
X0096100Y0215296D02*
X0089200Y0215296D01*
X0089200Y0216294D02*
X0096181Y0216294D01*
X0096595Y0217293D02*
X0089200Y0217293D01*
X0089200Y0218291D02*
X0097131Y0218291D01*
X0098130Y0219290D02*
X0089251Y0219290D01*
X0090249Y0220288D02*
X0098821Y0220288D01*
X0097600Y0221287D02*
X0090685Y0221287D01*
X0090878Y0222285D02*
X0096789Y0222285D01*
X0096376Y0223284D02*
X0090878Y0223284D01*
X0090469Y0224282D02*
X0096100Y0224282D01*
X0096100Y0225281D02*
X0089727Y0225281D01*
X0088066Y0226279D02*
X0096175Y0226279D01*
X0089200Y0198321D02*
X0111616Y0198321D01*
X0110991Y0197323D02*
X0089200Y0197323D01*
X0093500Y0187524D02*
X0101000Y0195024D01*
X0117000Y0195024D01*
X0117500Y0195524D01*
X0113784Y0191332D02*
X0100419Y0191332D01*
X0101418Y0192330D02*
X0112012Y0192330D01*
X0111631Y0188336D02*
X0097424Y0188336D01*
X0093500Y0187524D02*
X0093500Y0181024D01*
X0093500Y0106024D01*
X0098000Y0101524D01*
X0119000Y0101524D01*
X0114666Y0105460D02*
X0097175Y0105460D01*
X0096177Y0106458D02*
X0131100Y0106458D01*
X0136900Y0106458D02*
X0213050Y0106458D01*
X0213050Y0105460D02*
X0153334Y0105460D01*
X0154036Y0105169D02*
X0152455Y0105824D01*
X0145545Y0105824D01*
X0143964Y0105169D01*
X0142755Y0103959D01*
X0142100Y0102379D01*
X0142100Y0100668D01*
X0142755Y0099088D01*
X0143964Y0097878D01*
X0145545Y0097224D01*
X0152455Y0097224D01*
X0154036Y0097878D01*
X0155245Y0099088D01*
X0155900Y0100668D01*
X0155900Y0102379D01*
X0155245Y0103959D01*
X0154036Y0105169D01*
X0154744Y0104461D02*
X0213050Y0104461D01*
X0213050Y0103463D02*
X0155451Y0103463D01*
X0155865Y0102464D02*
X0213050Y0102464D01*
X0213050Y0101466D02*
X0155900Y0101466D01*
X0155817Y0100467D02*
X0213050Y0100467D01*
X0213050Y0099469D02*
X0155403Y0099469D01*
X0154628Y0098470D02*
X0213050Y0098470D01*
X0213050Y0097472D02*
X0153054Y0097472D01*
X0153298Y0095474D02*
X0213050Y0095474D01*
X0213050Y0094476D02*
X0154729Y0094476D01*
X0155445Y0093477D02*
X0213050Y0093477D01*
X0213050Y0092479D02*
X0155859Y0092479D01*
X0155900Y0091480D02*
X0213050Y0091480D01*
X0213050Y0090482D02*
X0155823Y0090482D01*
X0155409Y0089483D02*
X0213050Y0089483D01*
X0213050Y0088485D02*
X0154642Y0088485D01*
X0153090Y0087486D02*
X0213050Y0087486D01*
X0213050Y0086488D02*
X0110800Y0086488D01*
X0110800Y0086805D02*
X0108281Y0089324D01*
X0104719Y0089324D01*
X0102200Y0086805D01*
X0102200Y0083243D01*
X0104719Y0080724D01*
X0108281Y0080724D01*
X0110800Y0083243D01*
X0110800Y0086805D01*
X0110118Y0087486D02*
X0114910Y0087486D01*
X0113358Y0088485D02*
X0109120Y0088485D01*
X0110800Y0085489D02*
X0213050Y0085489D01*
X0213050Y0084491D02*
X0110800Y0084491D01*
X0110800Y0083492D02*
X0213050Y0083492D01*
X0213050Y0082494D02*
X0110051Y0082494D01*
X0109053Y0081495D02*
X0213050Y0081495D01*
X0213050Y0080497D02*
X0006714Y0080497D01*
X0006714Y0081495D02*
X0084230Y0081495D01*
X0084802Y0080924D02*
X0086200Y0080924D01*
X0086200Y0084724D01*
X0082400Y0084724D01*
X0082400Y0083325D01*
X0084802Y0080924D01*
X0086200Y0081495D02*
X0086800Y0081495D01*
X0086800Y0080924D02*
X0088198Y0080924D01*
X0090600Y0083325D01*
X0090600Y0084724D01*
X0086800Y0084724D01*
X0086800Y0085324D01*
X0086200Y0085324D01*
X0086200Y0089124D01*
X0084802Y0089124D01*
X0082400Y0086722D01*
X0082400Y0085324D01*
X0086200Y0085324D01*
X0086200Y0084724D01*
X0086800Y0084724D01*
X0086800Y0080924D01*
X0086800Y0082494D02*
X0086200Y0082494D01*
X0086200Y0083492D02*
X0086800Y0083492D01*
X0086800Y0084491D02*
X0086200Y0084491D01*
X0086200Y0085489D02*
X0086800Y0085489D01*
X0086800Y0085324D02*
X0086800Y0089124D01*
X0088198Y0089124D01*
X0090600Y0086722D01*
X0090600Y0085324D01*
X0086800Y0085324D01*
X0086800Y0086488D02*
X0086200Y0086488D01*
X0086200Y0087486D02*
X0086800Y0087486D01*
X0086800Y0088485D02*
X0086200Y0088485D01*
X0084163Y0088485D02*
X0006714Y0088485D01*
X0006714Y0089483D02*
X0112591Y0089483D01*
X0112177Y0090482D02*
X0006714Y0090482D01*
X0006714Y0091480D02*
X0112100Y0091480D01*
X0112141Y0092479D02*
X0006714Y0092479D01*
X0006714Y0093477D02*
X0112555Y0093477D01*
X0113271Y0094476D02*
X0006714Y0094476D01*
X0006714Y0095474D02*
X0114702Y0095474D01*
X0113256Y0104461D02*
X0098174Y0104461D01*
X0095700Y0107457D02*
X0110843Y0107457D01*
X0109129Y0108455D02*
X0095700Y0108455D01*
X0095700Y0109454D02*
X0108130Y0109454D01*
X0107132Y0110452D02*
X0095700Y0110452D01*
X0095700Y0111451D02*
X0106133Y0111451D01*
X0105135Y0112449D02*
X0095700Y0112449D01*
X0095700Y0113448D02*
X0104136Y0113448D01*
X0103138Y0114446D02*
X0095700Y0114446D01*
X0095700Y0115445D02*
X0102139Y0115445D01*
X0099447Y0116443D02*
X0095700Y0116443D01*
X0095700Y0117442D02*
X0098445Y0117442D01*
X0097725Y0118440D02*
X0095700Y0118440D01*
X0095700Y0119439D02*
X0097312Y0119439D01*
X0097100Y0120437D02*
X0095700Y0120437D01*
X0095700Y0121436D02*
X0097100Y0121436D01*
X0097239Y0122434D02*
X0095700Y0122434D01*
X0095700Y0123433D02*
X0097653Y0123433D01*
X0098271Y0124431D02*
X0095700Y0124431D01*
X0095700Y0125430D02*
X0099269Y0125430D01*
X0099483Y0126428D02*
X0095700Y0126428D01*
X0095700Y0127427D02*
X0098460Y0127427D01*
X0097731Y0128425D02*
X0095700Y0128425D01*
X0095700Y0129424D02*
X0097318Y0129424D01*
X0097100Y0130422D02*
X0095700Y0130422D01*
X0095700Y0131421D02*
X0097100Y0131421D01*
X0097233Y0132419D02*
X0095700Y0132419D01*
X0095700Y0133418D02*
X0097647Y0133418D01*
X0098256Y0134416D02*
X0095700Y0134416D01*
X0095700Y0135415D02*
X0099255Y0135415D01*
X0101401Y0136413D02*
X0095700Y0136413D01*
X0112851Y0156384D02*
X0128039Y0156384D01*
X0127040Y0157382D02*
X0122838Y0157382D01*
X0124538Y0158381D02*
X0126042Y0158381D01*
X0123514Y0155385D02*
X0129037Y0155385D01*
X0130036Y0154387D02*
X0124818Y0154387D01*
X0125482Y0153388D02*
X0131034Y0153388D01*
X0131100Y0152390D02*
X0125896Y0152390D01*
X0125900Y0151391D02*
X0131100Y0151391D01*
X0131100Y0150393D02*
X0125786Y0150393D01*
X0125372Y0149394D02*
X0131100Y0149394D01*
X0131100Y0148396D02*
X0124553Y0148396D01*
X0122874Y0147397D02*
X0131100Y0147397D01*
X0136900Y0147397D02*
X0145126Y0147397D01*
X0145545Y0145824D02*
X0143964Y0145169D01*
X0142755Y0143959D01*
X0142100Y0142379D01*
X0142100Y0140668D01*
X0142755Y0139088D01*
X0143964Y0137878D01*
X0145545Y0137224D01*
X0152455Y0137224D01*
X0152697Y0137324D01*
X0157260Y0137324D01*
X0162100Y0132484D01*
X0162100Y0131949D01*
X0162922Y0129965D01*
X0164441Y0128446D01*
X0165460Y0128024D01*
X0164441Y0127602D01*
X0162922Y0126082D01*
X0162100Y0124098D01*
X0162100Y0123563D01*
X0154260Y0115724D01*
X0152697Y0115724D01*
X0152455Y0115824D01*
X0145545Y0115824D01*
X0143964Y0115169D01*
X0142755Y0113959D01*
X0142100Y0112379D01*
X0142100Y0110668D01*
X0142755Y0109088D01*
X0143964Y0107878D01*
X0145545Y0107224D01*
X0152455Y0107224D01*
X0152697Y0107324D01*
X0156835Y0107324D01*
X0158379Y0107963D01*
X0168040Y0117624D01*
X0168574Y0117624D01*
X0170559Y0118446D01*
X0172078Y0119965D01*
X0172900Y0121949D01*
X0172900Y0124098D01*
X0172078Y0126082D01*
X0170559Y0127602D01*
X0169540Y0128024D01*
X0170559Y0128446D01*
X0172078Y0129965D01*
X0172900Y0131949D01*
X0172900Y0134098D01*
X0172078Y0136082D01*
X0170559Y0137602D01*
X0168574Y0138424D01*
X0168040Y0138424D01*
X0162561Y0143903D01*
X0161379Y0145084D01*
X0159835Y0145724D01*
X0152697Y0145724D01*
X0152455Y0145824D01*
X0145545Y0145824D01*
X0144522Y0145400D02*
X0136900Y0145400D01*
X0136900Y0144402D02*
X0143197Y0144402D01*
X0142524Y0143403D02*
X0136900Y0143403D01*
X0136900Y0142405D02*
X0142111Y0142405D01*
X0142100Y0141406D02*
X0136900Y0141406D01*
X0136900Y0140408D02*
X0142208Y0140408D01*
X0142622Y0139409D02*
X0136900Y0139409D01*
X0136900Y0138410D02*
X0143432Y0138410D01*
X0145090Y0137412D02*
X0136900Y0137412D01*
X0136900Y0136413D02*
X0158170Y0136413D01*
X0159169Y0135415D02*
X0152892Y0135415D01*
X0153174Y0135323D02*
X0152560Y0135523D01*
X0151923Y0135624D01*
X0149300Y0135624D01*
X0149300Y0131824D01*
X0148700Y0131824D01*
X0148700Y0135624D01*
X0146077Y0135624D01*
X0145440Y0135523D01*
X0144826Y0135323D01*
X0144251Y0135030D01*
X0143729Y0134651D01*
X0143273Y0134195D01*
X0142893Y0133672D01*
X0142600Y0133097D01*
X0142401Y0132484D01*
X0142300Y0131846D01*
X0142300Y0131824D01*
X0148700Y0131824D01*
X0148700Y0131224D01*
X0142300Y0131224D01*
X0142300Y0131201D01*
X0142401Y0130564D01*
X0142600Y0129950D01*
X0142893Y0129375D01*
X0143273Y0128853D01*
X0143729Y0128396D01*
X0144251Y0128017D01*
X0144826Y0127724D01*
X0145440Y0127525D01*
X0146077Y0127424D01*
X0148700Y0127424D01*
X0148700Y0131224D01*
X0149300Y0131224D01*
X0149300Y0131824D01*
X0155700Y0131824D01*
X0155700Y0131846D01*
X0155599Y0132484D01*
X0155400Y0133097D01*
X0155107Y0133672D01*
X0154727Y0134195D01*
X0154271Y0134651D01*
X0153749Y0135030D01*
X0153174Y0135323D01*
X0154505Y0134416D02*
X0160167Y0134416D01*
X0161166Y0133418D02*
X0155236Y0133418D01*
X0155609Y0132419D02*
X0162100Y0132419D01*
X0162319Y0131421D02*
X0149300Y0131421D01*
X0149300Y0131224D02*
X0155700Y0131224D01*
X0155700Y0131201D01*
X0155599Y0130564D01*
X0155400Y0129950D01*
X0155107Y0129375D01*
X0154727Y0128853D01*
X0154271Y0128396D01*
X0153749Y0128017D01*
X0153174Y0127724D01*
X0152560Y0127525D01*
X0151923Y0127424D01*
X0149300Y0127424D01*
X0149300Y0131224D01*
X0148700Y0131421D02*
X0136900Y0131421D01*
X0136900Y0132419D02*
X0142391Y0132419D01*
X0142764Y0133418D02*
X0136900Y0133418D01*
X0136900Y0134416D02*
X0143495Y0134416D01*
X0145108Y0135415D02*
X0136900Y0135415D01*
X0136900Y0130422D02*
X0142447Y0130422D01*
X0142868Y0129424D02*
X0136900Y0129424D01*
X0136900Y0128425D02*
X0143700Y0128425D01*
X0146057Y0127427D02*
X0136900Y0127427D01*
X0136900Y0126428D02*
X0163268Y0126428D01*
X0162652Y0125430D02*
X0152846Y0125430D01*
X0152560Y0125523D02*
X0151923Y0125624D01*
X0149300Y0125624D01*
X0149300Y0121824D01*
X0148700Y0121824D01*
X0148700Y0125624D01*
X0146077Y0125624D01*
X0145440Y0125523D01*
X0144826Y0125323D01*
X0144251Y0125030D01*
X0143729Y0124651D01*
X0143273Y0124195D01*
X0142893Y0123672D01*
X0142600Y0123097D01*
X0142401Y0122484D01*
X0142300Y0121846D01*
X0142300Y0121824D01*
X0148700Y0121824D01*
X0148700Y0121224D01*
X0142300Y0121224D01*
X0142300Y0121201D01*
X0142401Y0120564D01*
X0142600Y0119950D01*
X0142893Y0119375D01*
X0143273Y0118853D01*
X0143729Y0118396D01*
X0144251Y0118017D01*
X0144826Y0117724D01*
X0145440Y0117525D01*
X0146077Y0117424D01*
X0148700Y0117424D01*
X0148700Y0121224D01*
X0149300Y0121224D01*
X0149300Y0121824D01*
X0155700Y0121824D01*
X0155700Y0121846D01*
X0155599Y0122484D01*
X0155400Y0123097D01*
X0155107Y0123672D01*
X0154727Y0124195D01*
X0154271Y0124651D01*
X0153749Y0125030D01*
X0153174Y0125323D01*
X0152560Y0125523D01*
X0151943Y0127427D02*
X0164266Y0127427D01*
X0164490Y0128425D02*
X0154300Y0128425D01*
X0155132Y0129424D02*
X0163463Y0129424D01*
X0162733Y0130422D02*
X0155553Y0130422D01*
X0154491Y0124431D02*
X0162238Y0124431D01*
X0161970Y0123433D02*
X0155229Y0123433D01*
X0155607Y0122434D02*
X0160971Y0122434D01*
X0159972Y0121436D02*
X0149300Y0121436D01*
X0149300Y0121224D02*
X0155700Y0121224D01*
X0155700Y0121201D01*
X0155599Y0120564D01*
X0155400Y0119950D01*
X0155107Y0119375D01*
X0154727Y0118853D01*
X0154271Y0118396D01*
X0153749Y0118017D01*
X0153174Y0117724D01*
X0152560Y0117525D01*
X0151923Y0117424D01*
X0149300Y0117424D01*
X0149300Y0121224D01*
X0148700Y0121436D02*
X0136900Y0121436D01*
X0136900Y0122434D02*
X0142393Y0122434D01*
X0142771Y0123433D02*
X0136900Y0123433D01*
X0136900Y0124431D02*
X0143509Y0124431D01*
X0145154Y0125430D02*
X0136900Y0125430D01*
X0136900Y0120437D02*
X0142442Y0120437D01*
X0142861Y0119439D02*
X0136900Y0119439D01*
X0136900Y0118440D02*
X0143685Y0118440D01*
X0145963Y0117442D02*
X0136900Y0117442D01*
X0136900Y0116443D02*
X0154980Y0116443D01*
X0155978Y0117442D02*
X0152037Y0117442D01*
X0154315Y0118440D02*
X0156977Y0118440D01*
X0157975Y0119439D02*
X0155139Y0119439D01*
X0155558Y0120437D02*
X0158974Y0120437D01*
X0164862Y0114446D02*
X0213050Y0114446D01*
X0213050Y0113448D02*
X0163864Y0113448D01*
X0162865Y0112449D02*
X0213050Y0112449D01*
X0213050Y0111451D02*
X0161867Y0111451D01*
X0160868Y0110452D02*
X0213050Y0110452D01*
X0213050Y0109454D02*
X0159870Y0109454D01*
X0158871Y0108455D02*
X0213050Y0108455D01*
X0213050Y0107457D02*
X0157157Y0107457D01*
X0165861Y0115445D02*
X0213050Y0115445D01*
X0213050Y0116443D02*
X0166859Y0116443D01*
X0167858Y0117442D02*
X0213050Y0117442D01*
X0213050Y0118440D02*
X0170546Y0118440D01*
X0171552Y0119439D02*
X0213050Y0119439D01*
X0213050Y0120437D02*
X0172274Y0120437D01*
X0172687Y0121436D02*
X0213050Y0121436D01*
X0213050Y0122434D02*
X0172900Y0122434D01*
X0172900Y0123433D02*
X0213050Y0123433D01*
X0213050Y0124431D02*
X0172762Y0124431D01*
X0172348Y0125430D02*
X0213050Y0125430D01*
X0213050Y0126428D02*
X0171732Y0126428D01*
X0170734Y0127427D02*
X0213050Y0127427D01*
X0213050Y0128425D02*
X0170510Y0128425D01*
X0171537Y0129424D02*
X0213050Y0129424D01*
X0213050Y0130422D02*
X0172267Y0130422D01*
X0172681Y0131421D02*
X0213050Y0131421D01*
X0213050Y0132419D02*
X0206788Y0132419D01*
X0208531Y0133418D02*
X0213050Y0133418D01*
X0213050Y0134416D02*
X0209530Y0134416D01*
X0209971Y0135415D02*
X0213050Y0135415D01*
X0213050Y0136413D02*
X0210385Y0136413D01*
X0210400Y0137412D02*
X0213050Y0137412D01*
X0213050Y0138410D02*
X0210400Y0138410D01*
X0210064Y0139409D02*
X0213050Y0139409D01*
X0213050Y0140408D02*
X0209650Y0140408D01*
X0208754Y0141406D02*
X0213050Y0141406D01*
X0213050Y0142405D02*
X0207327Y0142405D01*
X0208516Y0143403D02*
X0213050Y0143403D01*
X0213050Y0144402D02*
X0209515Y0144402D01*
X0209965Y0145400D02*
X0213050Y0145400D01*
X0213050Y0146399D02*
X0210379Y0146399D01*
X0210400Y0147397D02*
X0213050Y0147397D01*
X0213050Y0148396D02*
X0210400Y0148396D01*
X0210070Y0149394D02*
X0213050Y0149394D01*
X0213050Y0150393D02*
X0209657Y0150393D01*
X0208769Y0151391D02*
X0213050Y0151391D01*
X0213050Y0152390D02*
X0207363Y0152390D01*
X0208501Y0153388D02*
X0213050Y0153388D01*
X0213050Y0154387D02*
X0209500Y0154387D01*
X0209959Y0155385D02*
X0213050Y0155385D01*
X0213050Y0156384D02*
X0210373Y0156384D01*
X0210400Y0157382D02*
X0213050Y0157382D01*
X0213050Y0158381D02*
X0210400Y0158381D01*
X0210076Y0159379D02*
X0213050Y0159379D01*
X0213050Y0160378D02*
X0209663Y0160378D01*
X0208784Y0161376D02*
X0213050Y0161376D01*
X0213050Y0162375D02*
X0207399Y0162375D01*
X0208486Y0163373D02*
X0213050Y0163373D01*
X0213050Y0164372D02*
X0209485Y0164372D01*
X0209953Y0165370D02*
X0213050Y0165370D01*
X0213050Y0166369D02*
X0210367Y0166369D01*
X0210400Y0167367D02*
X0213050Y0167367D01*
X0213050Y0168366D02*
X0210400Y0168366D01*
X0210082Y0169364D02*
X0213050Y0169364D01*
X0213050Y0170363D02*
X0209669Y0170363D01*
X0208799Y0171361D02*
X0213050Y0171361D01*
X0213050Y0172360D02*
X0207435Y0172360D01*
X0208472Y0173358D02*
X0213050Y0173358D01*
X0213050Y0174357D02*
X0209470Y0174357D01*
X0209947Y0175355D02*
X0213050Y0175355D01*
X0213050Y0176354D02*
X0210360Y0176354D01*
X0210400Y0177352D02*
X0213050Y0177352D01*
X0213050Y0178351D02*
X0210400Y0178351D01*
X0210089Y0179349D02*
X0213050Y0179349D01*
X0213050Y0180348D02*
X0209675Y0180348D01*
X0208814Y0181346D02*
X0213050Y0181346D01*
X0213050Y0182345D02*
X0207471Y0182345D01*
X0208093Y0183343D02*
X0213050Y0183343D01*
X0213050Y0184342D02*
X0209116Y0184342D01*
X0209724Y0185341D02*
X0213050Y0185341D01*
X0213050Y0186339D02*
X0210077Y0186339D01*
X0204500Y0187338D02*
X0175700Y0187338D01*
X0175700Y0186339D02*
X0199923Y0186339D01*
X0200276Y0185341D02*
X0175700Y0185341D01*
X0175700Y0184342D02*
X0200884Y0184342D01*
X0201907Y0183343D02*
X0175700Y0183343D01*
X0175700Y0182345D02*
X0202529Y0182345D01*
X0201186Y0181346D02*
X0175700Y0181346D01*
X0175700Y0180348D02*
X0200325Y0180348D01*
X0199911Y0179349D02*
X0175700Y0179349D01*
X0175700Y0178351D02*
X0199600Y0178351D01*
X0199600Y0177352D02*
X0175700Y0177352D01*
X0175700Y0176354D02*
X0199640Y0176354D01*
X0200053Y0175355D02*
X0175700Y0175355D01*
X0175700Y0174357D02*
X0200530Y0174357D01*
X0201528Y0173358D02*
X0175700Y0173358D01*
X0175700Y0172360D02*
X0202565Y0172360D01*
X0201201Y0171361D02*
X0175700Y0171361D01*
X0175700Y0170363D02*
X0200331Y0170363D01*
X0199918Y0169364D02*
X0175700Y0169364D01*
X0175700Y0168366D02*
X0199600Y0168366D01*
X0199600Y0167367D02*
X0175700Y0167367D01*
X0175700Y0166369D02*
X0199633Y0166369D01*
X0200047Y0165370D02*
X0175700Y0165370D01*
X0175700Y0164372D02*
X0200515Y0164372D01*
X0201514Y0163373D02*
X0175700Y0163373D01*
X0175700Y0162375D02*
X0202601Y0162375D01*
X0201216Y0161376D02*
X0175700Y0161376D01*
X0175700Y0160378D02*
X0181056Y0160378D01*
X0181802Y0161124D02*
X0179400Y0158722D01*
X0179400Y0157324D01*
X0183200Y0157324D01*
X0183200Y0161124D01*
X0181802Y0161124D01*
X0183200Y0160378D02*
X0183800Y0160378D01*
X0183800Y0161124D02*
X0185198Y0161124D01*
X0187600Y0158722D01*
X0187600Y0157324D01*
X0183800Y0157324D01*
X0183200Y0157324D01*
X0183200Y0156724D01*
X0179400Y0156724D01*
X0179400Y0155325D01*
X0181802Y0152924D01*
X0183200Y0152924D01*
X0183200Y0156724D01*
X0183800Y0156724D01*
X0183800Y0157324D01*
X0183800Y0161124D01*
X0183800Y0159379D02*
X0183200Y0159379D01*
X0183200Y0158381D02*
X0183800Y0158381D01*
X0183800Y0157382D02*
X0183200Y0157382D01*
X0183800Y0156724D02*
X0187600Y0156724D01*
X0187600Y0155325D01*
X0185198Y0152924D01*
X0183800Y0152924D01*
X0183800Y0156724D01*
X0183800Y0156384D02*
X0183200Y0156384D01*
X0183200Y0155385D02*
X0183800Y0155385D01*
X0183800Y0154387D02*
X0183200Y0154387D01*
X0183200Y0153388D02*
X0183800Y0153388D01*
X0185663Y0153388D02*
X0201499Y0153388D01*
X0200500Y0154387D02*
X0186661Y0154387D01*
X0187600Y0155385D02*
X0200041Y0155385D01*
X0199627Y0156384D02*
X0187600Y0156384D01*
X0187600Y0157382D02*
X0199600Y0157382D01*
X0199600Y0158381D02*
X0187600Y0158381D01*
X0186943Y0159379D02*
X0199924Y0159379D01*
X0200337Y0160378D02*
X0185944Y0160378D01*
X0180057Y0159379D02*
X0175700Y0159379D01*
X0175700Y0158381D02*
X0179400Y0158381D01*
X0179400Y0157382D02*
X0175700Y0157382D01*
X0175700Y0156384D02*
X0179400Y0156384D01*
X0179400Y0155385D02*
X0175700Y0155385D01*
X0175474Y0154387D02*
X0180339Y0154387D01*
X0181337Y0153388D02*
X0174476Y0153388D01*
X0173477Y0152390D02*
X0202637Y0152390D01*
X0201231Y0151391D02*
X0172479Y0151391D01*
X0171480Y0150393D02*
X0200343Y0150393D01*
X0199930Y0149394D02*
X0170482Y0149394D01*
X0169500Y0151524D02*
X0173500Y0155524D01*
X0173500Y0191524D01*
X0176181Y0194327D02*
X0200895Y0194327D01*
X0201927Y0193329D02*
X0176950Y0193329D01*
X0177363Y0192330D02*
X0202979Y0192330D01*
X0201454Y0191332D02*
X0177378Y0191332D01*
X0177204Y0190333D02*
X0200614Y0190333D01*
X0200121Y0189335D02*
X0176791Y0189335D01*
X0175797Y0188336D02*
X0199864Y0188336D01*
X0199862Y0198321D02*
X0171737Y0198321D01*
X0172736Y0199320D02*
X0200116Y0199320D01*
X0200603Y0200318D02*
X0173734Y0200318D01*
X0174733Y0201317D02*
X0201439Y0201317D01*
X0202950Y0202315D02*
X0175731Y0202315D01*
X0176730Y0203314D02*
X0201573Y0203314D01*
X0203535Y0222285D02*
X0189200Y0222285D01*
X0189200Y0223284D02*
X0201603Y0223284D01*
X0200604Y0224282D02*
X0189200Y0224282D01*
X0189200Y0225281D02*
X0200084Y0225281D01*
X0199670Y0226279D02*
X0188819Y0226279D01*
X0188185Y0227278D02*
X0199600Y0227278D01*
X0199600Y0228277D02*
X0187187Y0228277D01*
X0186188Y0229275D02*
X0199881Y0229275D01*
X0200294Y0230274D02*
X0185190Y0230274D01*
X0184191Y0231272D02*
X0201112Y0231272D01*
X0202349Y0232271D02*
X0183193Y0232271D01*
X0182194Y0233269D02*
X0201618Y0233269D01*
X0200619Y0234268D02*
X0181196Y0234268D01*
X0180197Y0235266D02*
X0200090Y0235266D01*
X0199677Y0236265D02*
X0179199Y0236265D01*
X0178200Y0237263D02*
X0199600Y0237263D01*
X0199600Y0238262D02*
X0177202Y0238262D01*
X0176203Y0239260D02*
X0199874Y0239260D01*
X0200288Y0240259D02*
X0175205Y0240259D01*
X0174206Y0241257D02*
X0201097Y0241257D01*
X0202313Y0242256D02*
X0173208Y0242256D01*
X0172209Y0243254D02*
X0201633Y0243254D01*
X0200634Y0244253D02*
X0171211Y0244253D01*
X0170212Y0245251D02*
X0200096Y0245251D01*
X0199683Y0246250D02*
X0169214Y0246250D01*
X0168215Y0247248D02*
X0199600Y0247248D01*
X0199600Y0248247D02*
X0167217Y0248247D01*
X0166218Y0249245D02*
X0199868Y0249245D01*
X0200282Y0250244D02*
X0165220Y0250244D01*
X0164221Y0251242D02*
X0175983Y0251242D01*
X0176802Y0250424D02*
X0178200Y0250424D01*
X0178200Y0254224D01*
X0174400Y0254224D01*
X0174400Y0252825D01*
X0176802Y0250424D01*
X0178200Y0251242D02*
X0178800Y0251242D01*
X0178800Y0250424D02*
X0180198Y0250424D01*
X0182600Y0252825D01*
X0182600Y0254224D01*
X0178800Y0254224D01*
X0178800Y0254824D01*
X0178200Y0254824D01*
X0178200Y0258624D01*
X0176802Y0258624D01*
X0174400Y0256222D01*
X0174400Y0254824D01*
X0178200Y0254824D01*
X0178200Y0254224D01*
X0178800Y0254224D01*
X0178800Y0250424D01*
X0178800Y0252241D02*
X0178200Y0252241D01*
X0178200Y0253239D02*
X0178800Y0253239D01*
X0178800Y0254238D02*
X0200649Y0254238D01*
X0200103Y0255236D02*
X0182600Y0255236D01*
X0182600Y0254824D02*
X0182600Y0256222D01*
X0180198Y0258624D01*
X0178800Y0258624D01*
X0178800Y0254824D01*
X0182600Y0254824D01*
X0182587Y0256235D02*
X0199689Y0256235D01*
X0199600Y0257233D02*
X0181589Y0257233D01*
X0180590Y0258232D02*
X0199600Y0258232D01*
X0199862Y0259230D02*
X0159526Y0259230D01*
X0160873Y0258232D02*
X0176410Y0258232D01*
X0175411Y0257233D02*
X0161871Y0257233D01*
X0162800Y0256235D02*
X0174413Y0256235D01*
X0174400Y0255236D02*
X0162800Y0255236D01*
X0162800Y0254238D02*
X0178200Y0254238D01*
X0178200Y0255236D02*
X0178800Y0255236D01*
X0178800Y0256235D02*
X0178200Y0256235D01*
X0178200Y0257233D02*
X0178800Y0257233D01*
X0178800Y0258232D02*
X0178200Y0258232D01*
X0174400Y0253239D02*
X0162800Y0253239D01*
X0163223Y0252241D02*
X0174985Y0252241D01*
X0181017Y0251242D02*
X0201082Y0251242D01*
X0202277Y0252241D02*
X0182015Y0252241D01*
X0182600Y0253239D02*
X0201648Y0253239D01*
X0179301Y0224282D02*
X0168400Y0224282D01*
X0168400Y0225281D02*
X0178303Y0225281D01*
X0177304Y0226279D02*
X0168325Y0226279D01*
X0167911Y0227278D02*
X0176306Y0227278D01*
X0175307Y0228277D02*
X0167384Y0228277D01*
X0166385Y0229275D02*
X0174309Y0229275D01*
X0173310Y0230274D02*
X0164436Y0230274D01*
X0162691Y0231272D02*
X0172312Y0231272D01*
X0171313Y0232271D02*
X0161693Y0232271D01*
X0160694Y0233269D02*
X0170315Y0233269D01*
X0169316Y0234268D02*
X0159696Y0234268D01*
X0158697Y0235266D02*
X0168318Y0235266D01*
X0167319Y0236265D02*
X0157699Y0236265D01*
X0156700Y0237263D02*
X0166321Y0237263D01*
X0165322Y0238262D02*
X0155702Y0238262D01*
X0154454Y0239260D02*
X0164324Y0239260D01*
X0154300Y0251242D02*
X0151000Y0251242D01*
X0147500Y0245524D02*
X0141500Y0245524D01*
X0136500Y0250524D01*
X0135666Y0248247D02*
X0135400Y0248247D01*
X0135400Y0247248D02*
X0136664Y0247248D01*
X0137663Y0246250D02*
X0135400Y0246250D01*
X0135400Y0245251D02*
X0138661Y0245251D01*
X0139660Y0244253D02*
X0135400Y0244253D01*
X0135400Y0243254D02*
X0141186Y0243254D01*
X0142087Y0242256D02*
X0135400Y0242256D01*
X0140890Y0249245D02*
X0142648Y0249245D01*
X0143232Y0229275D02*
X0135400Y0229275D01*
X0135400Y0228277D02*
X0141855Y0228277D01*
X0140992Y0224282D02*
X0135400Y0224282D01*
X0135400Y0223284D02*
X0141459Y0223284D01*
X0142382Y0222285D02*
X0135400Y0222285D01*
X0135400Y0221287D02*
X0159100Y0221287D01*
X0165679Y0220288D02*
X0180800Y0220288D01*
X0180800Y0219290D02*
X0166370Y0219290D01*
X0167369Y0218291D02*
X0180800Y0218291D01*
X0180800Y0217293D02*
X0167905Y0217293D01*
X0168319Y0216294D02*
X0180800Y0216294D01*
X0180800Y0215296D02*
X0168400Y0215296D01*
X0168400Y0214297D02*
X0180800Y0214297D01*
X0180800Y0213299D02*
X0168130Y0213299D01*
X0167717Y0212300D02*
X0180800Y0212300D01*
X0173146Y0211302D02*
X0166915Y0211302D01*
X0165715Y0210303D02*
X0171840Y0210303D01*
X0170841Y0209305D02*
X0163221Y0209305D01*
X0162222Y0208306D02*
X0169843Y0208306D01*
X0168844Y0207308D02*
X0161224Y0207308D01*
X0160225Y0206309D02*
X0167846Y0206309D01*
X0166847Y0205311D02*
X0159227Y0205311D01*
X0158228Y0204312D02*
X0165849Y0204312D01*
X0164850Y0203314D02*
X0157230Y0203314D01*
X0156231Y0202315D02*
X0163852Y0202315D01*
X0162853Y0201317D02*
X0151180Y0201317D01*
X0143820Y0201317D02*
X0135400Y0201317D01*
X0135400Y0202315D02*
X0142027Y0202315D01*
X0141161Y0203314D02*
X0135400Y0203314D01*
X0135400Y0204312D02*
X0140747Y0204312D01*
X0140600Y0205311D02*
X0135400Y0205311D01*
X0135400Y0206309D02*
X0140600Y0206309D01*
X0140985Y0207308D02*
X0135400Y0207308D01*
X0135400Y0208306D02*
X0141602Y0208306D01*
X0129600Y0208306D02*
X0123398Y0208306D01*
X0124015Y0207308D02*
X0129600Y0207308D01*
X0129600Y0206309D02*
X0124400Y0206309D01*
X0124400Y0205311D02*
X0129600Y0205311D01*
X0129600Y0204312D02*
X0124252Y0204312D01*
X0123839Y0203314D02*
X0129600Y0203314D01*
X0129600Y0202315D02*
X0122973Y0202315D01*
X0121180Y0201317D02*
X0129600Y0201317D01*
X0135900Y0182345D02*
X0141998Y0182345D01*
X0142544Y0181346D02*
X0143748Y0181346D01*
X0139000Y0178524D02*
X0138000Y0177524D01*
X0138000Y0163524D01*
X0141681Y0163373D02*
X0142512Y0163373D01*
X0142100Y0162375D02*
X0141681Y0162375D01*
X0141681Y0161376D02*
X0142100Y0161376D01*
X0142220Y0160378D02*
X0141220Y0160378D01*
X0142634Y0159379D02*
X0133246Y0159379D01*
X0134244Y0158381D02*
X0143462Y0158381D01*
X0145162Y0157382D02*
X0135243Y0157382D01*
X0136241Y0156384D02*
X0158200Y0156384D01*
X0159199Y0155385D02*
X0153514Y0155385D01*
X0154818Y0154387D02*
X0160056Y0154387D01*
X0165087Y0161376D02*
X0171300Y0161376D01*
X0171300Y0160378D02*
X0166227Y0160378D01*
X0167225Y0159379D02*
X0171300Y0159379D01*
X0171300Y0158381D02*
X0167800Y0158381D01*
X0167800Y0157382D02*
X0171300Y0157382D01*
X0171249Y0156384D02*
X0167800Y0156384D01*
X0167800Y0155385D02*
X0170250Y0155385D01*
X0169252Y0154387D02*
X0166944Y0154387D01*
X0169500Y0151524D02*
X0149000Y0151524D01*
X0152874Y0147397D02*
X0199600Y0147397D01*
X0199600Y0148396D02*
X0154553Y0148396D01*
X0160617Y0145400D02*
X0200035Y0145400D01*
X0199621Y0146399D02*
X0136900Y0146399D01*
X0136900Y0148396D02*
X0143447Y0148396D01*
X0142628Y0149394D02*
X0136900Y0149394D01*
X0136900Y0150393D02*
X0142214Y0150393D01*
X0142100Y0151391D02*
X0136900Y0151391D01*
X0136900Y0152390D02*
X0142104Y0152390D01*
X0142518Y0153388D02*
X0136900Y0153388D01*
X0136900Y0154387D02*
X0143182Y0154387D01*
X0144486Y0155385D02*
X0136782Y0155385D01*
X0134780Y0160378D02*
X0132247Y0160378D01*
X0131249Y0161376D02*
X0134319Y0161376D01*
X0141681Y0164372D02*
X0143167Y0164372D01*
X0144450Y0165370D02*
X0141681Y0165370D01*
X0141521Y0166369D02*
X0157905Y0166369D01*
X0158904Y0167367D02*
X0140200Y0167367D01*
X0140200Y0168366D02*
X0159903Y0168366D01*
X0160800Y0169364D02*
X0140200Y0169364D01*
X0162062Y0144402D02*
X0200485Y0144402D01*
X0201484Y0143403D02*
X0163060Y0143403D01*
X0162561Y0143903D02*
X0162561Y0143903D01*
X0164059Y0142405D02*
X0202673Y0142405D01*
X0201246Y0141406D02*
X0165057Y0141406D01*
X0166056Y0140408D02*
X0200350Y0140408D01*
X0199936Y0139409D02*
X0167054Y0139409D01*
X0168606Y0138410D02*
X0199600Y0138410D01*
X0199600Y0137412D02*
X0170748Y0137412D01*
X0171747Y0136413D02*
X0199615Y0136413D01*
X0200029Y0135415D02*
X0172354Y0135415D01*
X0172768Y0134416D02*
X0200470Y0134416D01*
X0201469Y0133418D02*
X0172900Y0133418D01*
X0172900Y0132419D02*
X0203212Y0132419D01*
X0213050Y0096473D02*
X0136900Y0096473D01*
X0136900Y0095474D02*
X0144702Y0095474D01*
X0143271Y0094476D02*
X0136900Y0094476D01*
X0136900Y0097472D02*
X0144946Y0097472D01*
X0143372Y0098470D02*
X0136900Y0098470D01*
X0136900Y0099469D02*
X0142597Y0099469D01*
X0142183Y0100467D02*
X0136900Y0100467D01*
X0136900Y0101466D02*
X0142100Y0101466D01*
X0142135Y0102464D02*
X0136900Y0102464D01*
X0136900Y0103463D02*
X0142549Y0103463D01*
X0143256Y0104461D02*
X0136900Y0104461D01*
X0136900Y0105460D02*
X0144666Y0105460D01*
X0144982Y0107457D02*
X0136900Y0107457D01*
X0136900Y0108455D02*
X0143387Y0108455D01*
X0142603Y0109454D02*
X0136900Y0109454D01*
X0136900Y0110452D02*
X0142190Y0110452D01*
X0142100Y0111451D02*
X0136900Y0111451D01*
X0136900Y0112449D02*
X0142129Y0112449D01*
X0142543Y0113448D02*
X0136900Y0113448D01*
X0136900Y0114446D02*
X0143241Y0114446D01*
X0144630Y0115445D02*
X0136900Y0115445D01*
X0131100Y0117442D02*
X0122037Y0117442D01*
X0124315Y0118440D02*
X0131100Y0118440D01*
X0131100Y0119439D02*
X0125139Y0119439D01*
X0125558Y0120437D02*
X0131100Y0120437D01*
X0131100Y0127427D02*
X0121943Y0127427D01*
X0124300Y0128425D02*
X0131100Y0128425D01*
X0131100Y0129424D02*
X0125132Y0129424D01*
X0125553Y0130422D02*
X0131100Y0130422D01*
X0119300Y0130422D02*
X0118700Y0130422D01*
X0118700Y0129424D02*
X0119300Y0129424D01*
X0119300Y0128425D02*
X0118700Y0128425D01*
X0118700Y0127427D02*
X0119300Y0127427D01*
X0119300Y0125430D02*
X0118700Y0125430D01*
X0118700Y0124431D02*
X0119300Y0124431D01*
X0119300Y0123433D02*
X0118700Y0123433D01*
X0118700Y0122434D02*
X0119300Y0122434D01*
X0119300Y0120437D02*
X0118700Y0120437D01*
X0118700Y0119439D02*
X0119300Y0119439D01*
X0119300Y0118440D02*
X0118700Y0118440D01*
X0118700Y0117442D02*
X0119300Y0117442D01*
X0124642Y0088485D02*
X0143358Y0088485D01*
X0144910Y0087486D02*
X0123090Y0087486D01*
X0103880Y0088485D02*
X0088837Y0088485D01*
X0089835Y0087486D02*
X0102882Y0087486D01*
X0102200Y0086488D02*
X0090600Y0086488D01*
X0090600Y0085489D02*
X0102200Y0085489D01*
X0102200Y0084491D02*
X0090600Y0084491D01*
X0090600Y0083492D02*
X0102200Y0083492D01*
X0102949Y0082494D02*
X0089768Y0082494D01*
X0088770Y0081495D02*
X0103947Y0081495D01*
X0083231Y0082494D02*
X0006714Y0082494D01*
X0006714Y0083492D02*
X0082400Y0083492D01*
X0082400Y0084491D02*
X0006714Y0084491D01*
X0006714Y0085489D02*
X0082400Y0085489D01*
X0082400Y0086488D02*
X0006714Y0086488D01*
X0006714Y0087486D02*
X0083165Y0087486D01*
X0113850Y0155385D02*
X0114486Y0155385D01*
X0115162Y0157382D02*
X0111853Y0157382D01*
X0111700Y0158381D02*
X0113462Y0158381D01*
X0112634Y0159379D02*
X0111700Y0159379D01*
X0111700Y0160378D02*
X0112220Y0160378D01*
X0112100Y0161376D02*
X0111700Y0161376D01*
X0111700Y0162375D02*
X0112100Y0162375D01*
X0111700Y0163373D02*
X0112512Y0163373D01*
X0113167Y0164372D02*
X0111700Y0164372D01*
X0111700Y0165370D02*
X0114450Y0165370D01*
X0148700Y0135415D02*
X0149300Y0135415D01*
X0149300Y0134416D02*
X0148700Y0134416D01*
X0148700Y0133418D02*
X0149300Y0133418D01*
X0149300Y0132419D02*
X0148700Y0132419D01*
X0148700Y0130422D02*
X0149300Y0130422D01*
X0149300Y0129424D02*
X0148700Y0129424D01*
X0148700Y0128425D02*
X0149300Y0128425D01*
X0149300Y0127427D02*
X0148700Y0127427D01*
X0148700Y0125430D02*
X0149300Y0125430D01*
X0149300Y0124431D02*
X0148700Y0124431D01*
X0148700Y0123433D02*
X0149300Y0123433D01*
X0149300Y0122434D02*
X0148700Y0122434D01*
X0148700Y0120437D02*
X0149300Y0120437D01*
X0149300Y0119439D02*
X0148700Y0119439D01*
X0148700Y0118440D02*
X0149300Y0118440D01*
X0149300Y0117442D02*
X0148700Y0117442D01*
X0165791Y0162375D02*
X0171300Y0162375D01*
X0171300Y0163373D02*
X0166789Y0163373D01*
X0167788Y0164372D02*
X0171300Y0164372D01*
X0171300Y0165370D02*
X0168654Y0165370D01*
X0169068Y0166369D02*
X0171300Y0166369D01*
X0171300Y0167367D02*
X0169200Y0167367D01*
X0169200Y0168366D02*
X0171300Y0168366D01*
X0171300Y0169364D02*
X0169200Y0169364D01*
X0169200Y0170363D02*
X0171300Y0170363D01*
X0171300Y0171361D02*
X0169200Y0171361D01*
X0169200Y0172360D02*
X0171300Y0172360D01*
X0171300Y0173358D02*
X0169200Y0173358D01*
X0169200Y0174357D02*
X0171300Y0174357D01*
X0171300Y0175355D02*
X0169200Y0175355D01*
X0169200Y0176354D02*
X0171300Y0176354D01*
X0171300Y0177352D02*
X0169200Y0177352D01*
X0169200Y0178351D02*
X0171300Y0178351D01*
X0171300Y0179349D02*
X0169200Y0179349D01*
X0169200Y0180348D02*
X0171300Y0180348D01*
X0171300Y0181346D02*
X0169200Y0181346D01*
X0169200Y0182345D02*
X0171300Y0182345D01*
X0171300Y0183343D02*
X0169200Y0183343D01*
X0169200Y0184342D02*
X0171300Y0184342D01*
X0171300Y0185341D02*
X0169200Y0185341D01*
X0169200Y0186339D02*
X0171300Y0186339D01*
X0171300Y0187338D02*
X0169200Y0187338D01*
X0169200Y0188336D02*
X0171203Y0188336D01*
X0170209Y0189335D02*
X0169200Y0189335D01*
X0166900Y0221287D02*
X0180800Y0221287D01*
X0180800Y0222285D02*
X0167711Y0222285D01*
X0168124Y0223284D02*
X0180300Y0223284D01*
X0213050Y0079498D02*
X0006714Y0079498D01*
X0006714Y0078500D02*
X0213050Y0078500D01*
X0213050Y0077501D02*
X0006714Y0077501D01*
X0006714Y0076503D02*
X0213050Y0076503D01*
X0213050Y0075504D02*
X0006714Y0075504D01*
X0006714Y0074506D02*
X0213050Y0074506D01*
X0213050Y0073507D02*
X0006714Y0073507D01*
X0006714Y0072509D02*
X0213050Y0072509D01*
X0213050Y0071510D02*
X0006714Y0071510D01*
X0006714Y0070512D02*
X0213050Y0070512D01*
X0213050Y0069513D02*
X0006714Y0069513D01*
X0006714Y0068515D02*
X0213050Y0068515D01*
X0213050Y0067516D02*
X0006714Y0067516D01*
X0051000Y0163373D02*
X0052000Y0163373D01*
X0052000Y0164372D02*
X0051000Y0164372D01*
X0051000Y0165370D02*
X0052000Y0165370D01*
X0052000Y0166369D02*
X0051000Y0166369D01*
X0051000Y0167367D02*
X0052000Y0167367D01*
X0054010Y0167367D02*
X0058707Y0167367D01*
X0057708Y0166369D02*
X0055009Y0166369D01*
X0056007Y0165370D02*
X0056710Y0165370D01*
D17*
X0052000Y0187524D03*
X0038500Y0181024D03*
X0032000Y0136024D03*
X0080000Y0156524D03*
X0087000Y0137524D03*
X0087000Y0222524D03*
X0073000Y0264524D03*
X0052000Y0257524D03*
X0173500Y0191524D03*
D18*
X0139000Y0178524D03*
X0138000Y0163524D03*
X0109500Y0176524D03*
X0093500Y0181024D03*
X0015500Y0218024D03*
D19*
X0117500Y0245524D02*
X0120000Y0245524D01*
M02*
