%
M48
M72
T01C0.02362
T02C0.02756
T03C0.03200
T04C0.04000
%
T01
X109500Y176524
X93500Y181024
X139000Y178524
X138000Y163524
X15500Y218024
T02
X38500Y181024
X52000Y187524
X80000Y156524
X87000Y137524
X32000Y136024
X87000Y222524
X73000Y264524
X52000Y257524
X173500Y191524
T03
X163500Y157024
X149000Y161524
X149000Y151524
X149000Y141524
X149000Y131524
X149000Y121524
X149000Y111524
X149000Y101524
X149000Y91524
X119000Y91524
X119000Y101524
X119000Y111524
X119000Y121524
X119000Y131524
X119000Y141524
X119000Y151524
X119000Y161524
X117500Y185524
X117500Y195524
X117500Y205524
X117500Y215524
X117500Y225524
X117500Y235524
X117500Y245524
X117500Y255524
X147500Y255524
X147500Y245524
X147500Y235524
X147500Y225524
X147500Y215524
X147500Y205524
X147500Y195524
X147500Y185524
X183500Y157024
X178500Y254524
X158500Y254524
X102000Y202424
X102000Y182424
X106500Y85024
X86500Y85024
T04
X15000Y102524
X15000Y112524
X15000Y122524
X15000Y132524
X15000Y142524
X15000Y152524
X15000Y162524
X15000Y172524
X15000Y182524
X15000Y192524
X15000Y207524
X15000Y217524
X15000Y227524
X15000Y237524
X15000Y247524
X15000Y257524
X15000Y267524
X15000Y277524
X51500Y162524
X51500Y152524
X51500Y142524
X51500Y132524
X61500Y132524
X61500Y142524
X61500Y152524
X61500Y162524
X102500Y131024
X102500Y121024
X167500Y123024
X167500Y133024
X205000Y137524
X205000Y147524
X205000Y157524
X205000Y167524
X205000Y177524
X205000Y187524
X205000Y197524
X205000Y207524
X205000Y227524
X205000Y237524
X205000Y247524
X205000Y257524
X205000Y267524
X205000Y277524
X163000Y225024
X163000Y215024
X101500Y215024
X101500Y225024
M30
