%
M48
M72
T01C0.02800
T02C0.04000
%
T01
X29312Y40306
X45847Y43456
X47422Y52511
X57658Y50149
X64351Y60778
X82461Y43456
X100965Y27708
X110414Y28495
X116320Y17078
X132068Y39125
X116320Y55267
X144666Y71015
X157658Y70621
X173406Y85582
X171832Y103692
X171438Y109991
X173013Y122589
X154902Y100542
X139189Y86867
X130389Y124867
X111202Y151330
X108057Y157710
X107465Y163760
X135217Y164715
X155589Y167467
X161289Y177867
X175769Y181251
X171832Y195424
X173013Y155267
X168288Y148574
X193879Y57235
X186398Y45424
X145454Y12747
X74789Y95667
X67895Y106054
X49391Y102511
X45060Y85582
X33249Y69440
X47422Y22589
X47028Y124558
X56189Y147467
X69289Y147667
X47816Y169046
X52934Y185975
X24981Y159204
T02
X78389Y197067
X88389Y197067
X98389Y197067
X108389Y197067
X118389Y197067
X128389Y197067
X138389Y197067
X148389Y197067
X116989Y131767
X106989Y131767
X106989Y121767
X116989Y121767
X128489Y110267
X138489Y110267
X138489Y100267
X128489Y100267
X116989Y88767
X106989Y88767
X106989Y78767
X116989Y78767
X95489Y100267
X85489Y100267
X85489Y110267
X95489Y110267
M30
